<?xml version="1.0" encoding="UTF-8" standalone="no"?>
<!DOCTYPE svg PUBLIC "-//W3C//DTD SVG 1.1//EN"
 "http://www.w3.org/Graphics/SVG/1.1/DTD/svg11.dtd">
<!-- Generated by graphviz version 2.46.1 (20210213.1702)
 -->
<!-- Title: example1 Pages: 1 -->
<svg width="398pt" height="332pt"
 viewBox="0.00 0.00 398.27 332.00" xmlns="http://www.w3.org/2000/svg" xmlns:xlink="http://www.w3.org/1999/xlink">
<g id="graph0" class="graph" transform="scale(1 1) rotate(0) translate(4 328)">
<title>example1</title>
<polygon fill="white" stroke="transparent" points="-4,4 -4,-328 394.27,-328 394.27,4 -4,4"/>
<!-- mst0 -->
<g id="node1" class="node">
<title>mst0</title>
<ellipse fill="none" stroke="black" cx="135.13" cy="-234" rx="29.63" ry="18"/>
<text text-anchor="middle" x="135.13" y="-229.8" font-family="Times,serif" font-size="14.00">mst0</text>
</g>
<!-- joiner0 -->
<g id="node2" class="node">
<title>joiner0</title>
<ellipse fill="none" stroke="black" cx="135.13" cy="-162" rx="38.28" ry="18"/>
<text text-anchor="middle" x="135.13" y="-157.8" font-family="Times,serif" font-size="14.00">joiner0</text>
</g>
<!-- mst0&#45;&gt;joiner0 -->
<g id="edge1" class="edge">
<title>mst0&#45;&gt;joiner0</title>
<path fill="none" stroke="black" d="M135.13,-215.7C135.13,-207.98 135.13,-198.71 135.13,-190.11"/>
<polygon fill="black" stroke="black" points="138.63,-190.1 135.13,-180.1 131.63,-190.1 138.63,-190.1"/>
</g>
<!-- splitter1 -->
<g id="node8" class="node">
<title>splitter1</title>
<ellipse fill="none" stroke="black" cx="135.13" cy="-90" rx="42.87" ry="18"/>
<text text-anchor="middle" x="135.13" y="-85.8" font-family="Times,serif" font-size="14.00">splitter1</text>
</g>
<!-- joiner0&#45;&gt;splitter1 -->
<g id="edge7" class="edge">
<title>joiner0&#45;&gt;splitter1</title>
<path fill="none" stroke="black" d="M135.13,-143.7C135.13,-135.98 135.13,-126.71 135.13,-118.11"/>
<polygon fill="black" stroke="black" points="138.63,-118.1 135.13,-108.1 131.63,-118.1 138.63,-118.1"/>
</g>
<!-- mst1 -->
<g id="node3" class="node">
<title>mst1</title>
<ellipse fill="none" stroke="black" cx="258.13" cy="-306" rx="29.63" ry="18"/>
<text text-anchor="middle" x="258.13" y="-301.8" font-family="Times,serif" font-size="14.00">mst1</text>
</g>
<!-- splitter0 -->
<g id="node4" class="node">
<title>splitter0</title>
<ellipse fill="none" stroke="black" cx="258.13" cy="-234" rx="42.87" ry="18"/>
<text text-anchor="middle" x="258.13" y="-229.8" font-family="Times,serif" font-size="14.00">splitter0</text>
</g>
<!-- mst1&#45;&gt;splitter0 -->
<g id="edge2" class="edge">
<title>mst1&#45;&gt;splitter0</title>
<path fill="none" stroke="black" d="M258.13,-287.7C258.13,-279.98 258.13,-270.71 258.13,-262.11"/>
<polygon fill="black" stroke="black" points="261.63,-262.1 258.13,-252.1 254.63,-262.1 261.63,-262.1"/>
</g>
<!-- splitter0&#45;&gt;joiner0 -->
<g id="edge3" class="edge">
<title>splitter0&#45;&gt;joiner0</title>
<path fill="none" stroke="black" d="M233.83,-219.17C214.8,-208.34 188.17,-193.18 167.36,-181.34"/>
<polygon fill="black" stroke="black" points="168.97,-178.23 158.55,-176.33 165.51,-184.31 168.97,-178.23"/>
</g>
<!-- slv4 -->
<g id="node5" class="node">
<title>slv4</title>
<ellipse fill="none" stroke="black" cx="219.13" cy="-162" rx="27.27" ry="18"/>
<text text-anchor="middle" x="219.13" y="-157.8" font-family="Times,serif" font-size="14.00">slv4</text>
</g>
<!-- splitter0&#45;&gt;slv4 -->
<g id="edge4" class="edge">
<title>splitter0&#45;&gt;slv4</title>
<path fill="none" stroke="black" d="M248.89,-216.41C244.23,-208.04 238.47,-197.71 233.27,-188.37"/>
<polygon fill="black" stroke="black" points="236.23,-186.5 228.31,-179.47 230.12,-189.91 236.23,-186.5"/>
</g>
<!-- slv5 -->
<g id="node6" class="node">
<title>slv5</title>
<ellipse fill="none" stroke="black" cx="291.13" cy="-162" rx="27.27" ry="18"/>
<text text-anchor="middle" x="291.13" y="-157.8" font-family="Times,serif" font-size="14.00">slv5</text>
</g>
<!-- splitter0&#45;&gt;slv5 -->
<g id="edge5" class="edge">
<title>splitter0&#45;&gt;slv5</title>
<path fill="none" stroke="black" d="M266.12,-216.05C270.03,-207.77 274.81,-197.62 279.15,-188.42"/>
<polygon fill="black" stroke="black" points="282.35,-189.84 283.45,-179.31 276.02,-186.86 282.35,-189.84"/>
</g>
<!-- slv6 -->
<g id="node7" class="node">
<title>slv6</title>
<ellipse fill="none" stroke="black" cx="363.13" cy="-162" rx="27.27" ry="18"/>
<text text-anchor="middle" x="363.13" y="-157.8" font-family="Times,serif" font-size="14.00">slv6</text>
</g>
<!-- splitter0&#45;&gt;slv6 -->
<g id="edge6" class="edge">
<title>splitter0&#45;&gt;slv6</title>
<path fill="none" stroke="black" d="M279.89,-218.5C296.16,-207.65 318.5,-192.75 335.95,-181.12"/>
<polygon fill="black" stroke="black" points="338.18,-183.84 344.56,-175.38 334.3,-178.01 338.18,-183.84"/>
</g>
<!-- slv0 -->
<g id="node9" class="node">
<title>slv0</title>
<ellipse fill="none" stroke="black" cx="27.13" cy="-18" rx="27.27" ry="18"/>
<text text-anchor="middle" x="27.13" y="-13.8" font-family="Times,serif" font-size="14.00">slv0</text>
</g>
<!-- splitter1&#45;&gt;slv0 -->
<g id="edge8" class="edge">
<title>splitter1&#45;&gt;slv0</title>
<path fill="none" stroke="black" d="M112.76,-74.5C95.92,-63.58 72.75,-48.57 54.76,-36.91"/>
<polygon fill="black" stroke="black" points="56.18,-33.66 45.88,-31.15 52.37,-39.53 56.18,-33.66"/>
</g>
<!-- slv1 -->
<g id="node10" class="node">
<title>slv1</title>
<ellipse fill="none" stroke="black" cx="99.13" cy="-18" rx="27.27" ry="18"/>
<text text-anchor="middle" x="99.13" y="-13.8" font-family="Times,serif" font-size="14.00">slv1</text>
</g>
<!-- splitter1&#45;&gt;slv1 -->
<g id="edge9" class="edge">
<title>splitter1&#45;&gt;slv1</title>
<path fill="none" stroke="black" d="M126.42,-72.05C122.16,-63.77 116.94,-53.62 112.21,-44.42"/>
<polygon fill="black" stroke="black" points="115.21,-42.6 107.52,-35.31 108.98,-45.8 115.21,-42.6"/>
</g>
<!-- slv2 -->
<g id="node11" class="node">
<title>slv2</title>
<ellipse fill="none" stroke="black" cx="171.13" cy="-18" rx="27.27" ry="18"/>
<text text-anchor="middle" x="171.13" y="-13.8" font-family="Times,serif" font-size="14.00">slv2</text>
</g>
<!-- splitter1&#45;&gt;slv2 -->
<g id="edge10" class="edge">
<title>splitter1&#45;&gt;slv2</title>
<path fill="none" stroke="black" d="M143.85,-72.05C148.11,-63.77 153.33,-53.62 158.06,-44.42"/>
<polygon fill="black" stroke="black" points="161.29,-45.8 162.75,-35.31 155.06,-42.6 161.29,-45.8"/>
</g>
<!-- slv3 -->
<g id="node12" class="node">
<title>slv3</title>
<ellipse fill="none" stroke="black" cx="243.13" cy="-18" rx="27.27" ry="18"/>
<text text-anchor="middle" x="243.13" y="-13.8" font-family="Times,serif" font-size="14.00">slv3</text>
</g>
<!-- splitter1&#45;&gt;slv3 -->
<g id="edge11" class="edge">
<title>splitter1&#45;&gt;slv3</title>
<path fill="none" stroke="black" d="M157.51,-74.5C174.35,-63.58 197.52,-48.57 215.51,-36.91"/>
<polygon fill="black" stroke="black" points="217.89,-39.53 224.38,-31.15 214.09,-33.66 217.89,-39.53"/>
</g>
</g>
</svg>
