<?xml version="1.0" encoding="UTF-8" standalone="no"?>
<!DOCTYPE svg PUBLIC "-//W3C//DTD SVG 1.1//EN"
 "http://www.w3.org/Graphics/SVG/1.1/DTD/svg11.dtd">
<!-- Generated by graphviz version 2.46.1 (20210213.1702)
 -->
<!-- Title: x4x4 Pages: 1 -->
<svg width="302pt" height="260pt"
 viewBox="0.00 0.00 301.63 260.00" xmlns="http://www.w3.org/2000/svg" xmlns:xlink="http://www.w3.org/1999/xlink">
<g id="graph0" class="graph" transform="scale(1 1) rotate(0) translate(4 256)">
<title>x4x4</title>
<polygon fill="white" stroke="transparent" points="-4,4 -4,-256 297.63,-256 297.63,4 -4,4"/>
<!-- mst0 -->
<g id="node1" class="node">
<title>mst0</title>
<ellipse fill="none" stroke="black" cx="29.82" cy="-234" rx="29.63" ry="18"/>
<text text-anchor="middle" x="29.82" y="-229.8" font-family="Times,serif" font-size="14.00">mst0</text>
</g>
<!-- merger0 -->
<g id="node2" class="node">
<title>merger0</title>
<ellipse fill="none" stroke="black" cx="146.82" cy="-162" rx="43.42" ry="18"/>
<text text-anchor="middle" x="146.82" y="-157.8" font-family="Times,serif" font-size="14.00">merger0</text>
</g>
<!-- mst0&#45;&gt;merger0 -->
<g id="edge1" class="edge">
<title>mst0&#45;&gt;merger0</title>
<path fill="none" stroke="black" d="M50.2,-220.81C67.88,-210.23 93.78,-194.73 114.32,-182.44"/>
<polygon fill="black" stroke="black" points="116.26,-185.36 123.04,-177.22 112.66,-179.35 116.26,-185.36"/>
</g>
<!-- splitter0 -->
<g id="node6" class="node">
<title>splitter0</title>
<ellipse fill="none" stroke="black" cx="146.82" cy="-90" rx="42.87" ry="18"/>
<text text-anchor="middle" x="146.82" y="-85.8" font-family="Times,serif" font-size="14.00">splitter0</text>
</g>
<!-- merger0&#45;&gt;splitter0 -->
<g id="edge5" class="edge">
<title>merger0&#45;&gt;splitter0</title>
<path fill="none" stroke="black" d="M146.82,-143.7C146.82,-135.98 146.82,-126.71 146.82,-118.11"/>
<polygon fill="black" stroke="black" points="150.32,-118.1 146.82,-108.1 143.32,-118.1 150.32,-118.1"/>
</g>
<!-- mst1 -->
<g id="node3" class="node">
<title>mst1</title>
<ellipse fill="none" stroke="black" cx="107.82" cy="-234" rx="29.63" ry="18"/>
<text text-anchor="middle" x="107.82" y="-229.8" font-family="Times,serif" font-size="14.00">mst1</text>
</g>
<!-- mst1&#45;&gt;merger0 -->
<g id="edge2" class="edge">
<title>mst1&#45;&gt;merger0</title>
<path fill="none" stroke="black" d="M116.86,-216.76C121.52,-208.4 127.31,-198.02 132.55,-188.61"/>
<polygon fill="black" stroke="black" points="135.74,-190.07 137.55,-179.63 129.62,-186.67 135.74,-190.07"/>
</g>
<!-- mst2 -->
<g id="node4" class="node">
<title>mst2</title>
<ellipse fill="none" stroke="black" cx="185.82" cy="-234" rx="29.63" ry="18"/>
<text text-anchor="middle" x="185.82" y="-229.8" font-family="Times,serif" font-size="14.00">mst2</text>
</g>
<!-- mst2&#45;&gt;merger0 -->
<g id="edge3" class="edge">
<title>mst2&#45;&gt;merger0</title>
<path fill="none" stroke="black" d="M176.77,-216.76C172.11,-208.4 166.33,-198.02 161.08,-188.61"/>
<polygon fill="black" stroke="black" points="164.01,-186.67 156.08,-179.63 157.89,-190.07 164.01,-186.67"/>
</g>
<!-- mst3 -->
<g id="node5" class="node">
<title>mst3</title>
<ellipse fill="none" stroke="black" cx="263.82" cy="-234" rx="29.63" ry="18"/>
<text text-anchor="middle" x="263.82" y="-229.8" font-family="Times,serif" font-size="14.00">mst3</text>
</g>
<!-- mst3&#45;&gt;merger0 -->
<g id="edge4" class="edge">
<title>mst3&#45;&gt;merger0</title>
<path fill="none" stroke="black" d="M243.44,-220.81C225.76,-210.23 199.85,-194.73 179.31,-182.44"/>
<polygon fill="black" stroke="black" points="180.97,-179.35 170.59,-177.22 177.37,-185.36 180.97,-179.35"/>
</g>
<!-- slv0 -->
<g id="node7" class="node">
<title>slv0</title>
<ellipse fill="none" stroke="black" cx="38.82" cy="-18" rx="27.27" ry="18"/>
<text text-anchor="middle" x="38.82" y="-13.8" font-family="Times,serif" font-size="14.00">slv0</text>
</g>
<!-- splitter0&#45;&gt;slv0 -->
<g id="edge6" class="edge">
<title>splitter0&#45;&gt;slv0</title>
<path fill="none" stroke="black" d="M124.44,-74.5C107.6,-63.58 84.43,-48.57 66.44,-36.91"/>
<polygon fill="black" stroke="black" points="67.86,-33.66 57.57,-31.15 64.05,-39.53 67.86,-33.66"/>
</g>
<!-- slv1 -->
<g id="node8" class="node">
<title>slv1</title>
<ellipse fill="none" stroke="black" cx="110.82" cy="-18" rx="27.27" ry="18"/>
<text text-anchor="middle" x="110.82" y="-13.8" font-family="Times,serif" font-size="14.00">slv1</text>
</g>
<!-- splitter0&#45;&gt;slv1 -->
<g id="edge7" class="edge">
<title>splitter0&#45;&gt;slv1</title>
<path fill="none" stroke="black" d="M138.1,-72.05C133.84,-63.77 128.62,-53.62 123.89,-44.42"/>
<polygon fill="black" stroke="black" points="126.89,-42.6 119.2,-35.31 120.66,-45.8 126.89,-42.6"/>
</g>
<!-- slv2 -->
<g id="node9" class="node">
<title>slv2</title>
<ellipse fill="none" stroke="black" cx="182.82" cy="-18" rx="27.27" ry="18"/>
<text text-anchor="middle" x="182.82" y="-13.8" font-family="Times,serif" font-size="14.00">slv2</text>
</g>
<!-- splitter0&#45;&gt;slv2 -->
<g id="edge8" class="edge">
<title>splitter0&#45;&gt;slv2</title>
<path fill="none" stroke="black" d="M155.53,-72.05C159.79,-63.77 165.01,-53.62 169.74,-44.42"/>
<polygon fill="black" stroke="black" points="172.97,-45.8 174.43,-35.31 166.74,-42.6 172.97,-45.8"/>
</g>
<!-- slv3 -->
<g id="node10" class="node">
<title>slv3</title>
<ellipse fill="none" stroke="black" cx="254.82" cy="-18" rx="27.27" ry="18"/>
<text text-anchor="middle" x="254.82" y="-13.8" font-family="Times,serif" font-size="14.00">slv3</text>
</g>
<!-- splitter0&#45;&gt;slv3 -->
<g id="edge9" class="edge">
<title>splitter0&#45;&gt;slv3</title>
<path fill="none" stroke="black" d="M169.19,-74.5C186.03,-63.58 209.2,-48.57 227.19,-36.91"/>
<polygon fill="black" stroke="black" points="229.58,-39.53 236.07,-31.15 225.77,-33.66 229.58,-39.53"/>
</g>
</g>
</svg>
