<?xml version="1.0" encoding="UTF-8" standalone="no"?>
<!DOCTYPE svg PUBLIC "-//W3C//DTD SVG 1.1//EN"
 "http://www.w3.org/Graphics/SVG/1.1/DTD/svg11.dtd">
<!-- Generated by graphviz version 3.0.0 (20220226.1711)
 -->
<!-- Title: x4x4 Pages: 1 -->
<svg width="290pt" height="260pt"
 viewBox="0.00 0.00 290.19 260.00" xmlns="http://www.w3.org/2000/svg" xmlns:xlink="http://www.w3.org/1999/xlink">
<g id="graph0" class="graph" transform="scale(1 1) rotate(0) translate(4 256)">
<title>x4x4</title>
<polygon fill="white" stroke="transparent" points="-4,4 -4,-256 286.19,-256 286.19,4 -4,4"/>
<!-- mst0 -->
<g id="node1" class="node">
<title>mst0</title>
<ellipse fill="none" stroke="black" cx="28.6" cy="-234" rx="28.7" ry="18"/>
<text text-anchor="middle" x="28.6" y="-230.3" font-family="Times,serif" font-size="14.00">mst0</text>
</g>
<!-- merger0 -->
<g id="node2" class="node">
<title>merger0</title>
<ellipse fill="none" stroke="black" cx="140.6" cy="-162" rx="40.09" ry="18"/>
<text text-anchor="middle" x="140.6" y="-158.3" font-family="Times,serif" font-size="14.00">merger0</text>
</g>
<!-- mst0&#45;&gt;merger0 -->
<g id="edge1" class="edge">
<title>mst0&#45;&gt;merger0</title>
<path fill="none" stroke="black" d="M48.11,-220.81C65.06,-210.21 89.93,-194.67 109.61,-182.37"/>
<polygon fill="black" stroke="black" points="111.61,-185.24 118.24,-176.98 107.9,-179.31 111.61,-185.24"/>
</g>
<!-- splitter0 -->
<g id="node6" class="node">
<title>splitter0</title>
<ellipse fill="none" stroke="black" cx="140.6" cy="-90" rx="39.79" ry="18"/>
<text text-anchor="middle" x="140.6" y="-86.3" font-family="Times,serif" font-size="14.00">splitter0</text>
</g>
<!-- merger0&#45;&gt;splitter0 -->
<g id="edge5" class="edge">
<title>merger0&#45;&gt;splitter0</title>
<path fill="none" stroke="black" d="M140.6,-143.7C140.6,-135.98 140.6,-126.71 140.6,-118.11"/>
<polygon fill="black" stroke="black" points="144.1,-118.1 140.6,-108.1 137.1,-118.1 144.1,-118.1"/>
</g>
<!-- mst1 -->
<g id="node3" class="node">
<title>mst1</title>
<ellipse fill="none" stroke="black" cx="103.6" cy="-234" rx="28.7" ry="18"/>
<text text-anchor="middle" x="103.6" y="-230.3" font-family="Times,serif" font-size="14.00">mst1</text>
</g>
<!-- mst1&#45;&gt;merger0 -->
<g id="edge2" class="edge">
<title>mst1&#45;&gt;merger0</title>
<path fill="none" stroke="black" d="M112.18,-216.76C116.6,-208.4 122.09,-198.02 127.06,-188.61"/>
<polygon fill="black" stroke="black" points="130.23,-190.11 131.81,-179.63 124.04,-186.84 130.23,-190.11"/>
</g>
<!-- mst2 -->
<g id="node4" class="node">
<title>mst2</title>
<ellipse fill="none" stroke="black" cx="178.6" cy="-234" rx="28.7" ry="18"/>
<text text-anchor="middle" x="178.6" y="-230.3" font-family="Times,serif" font-size="14.00">mst2</text>
</g>
<!-- mst2&#45;&gt;merger0 -->
<g id="edge3" class="edge">
<title>mst2&#45;&gt;merger0</title>
<path fill="none" stroke="black" d="M169.78,-216.76C165.25,-208.4 159.61,-198.02 154.5,-188.61"/>
<polygon fill="black" stroke="black" points="157.47,-186.75 149.63,-179.63 151.32,-190.09 157.47,-186.75"/>
</g>
<!-- mst3 -->
<g id="node5" class="node">
<title>mst3</title>
<ellipse fill="none" stroke="black" cx="253.6" cy="-234" rx="28.7" ry="18"/>
<text text-anchor="middle" x="253.6" y="-230.3" font-family="Times,serif" font-size="14.00">mst3</text>
</g>
<!-- mst3&#45;&gt;merger0 -->
<g id="edge4" class="edge">
<title>mst3&#45;&gt;merger0</title>
<path fill="none" stroke="black" d="M233.91,-220.81C216.81,-210.21 191.72,-194.67 171.87,-182.37"/>
<polygon fill="black" stroke="black" points="173.5,-179.27 163.16,-176.98 169.82,-185.22 173.5,-179.27"/>
</g>
<!-- slv0 -->
<g id="node7" class="node">
<title>slv0</title>
<ellipse fill="none" stroke="black" cx="32.6" cy="-18" rx="27" ry="18"/>
<text text-anchor="middle" x="32.6" y="-14.3" font-family="Times,serif" font-size="14.00">slv0</text>
</g>
<!-- splitter0&#45;&gt;slv0 -->
<g id="edge6" class="edge">
<title>splitter0&#45;&gt;slv0</title>
<path fill="none" stroke="black" d="M118.74,-74.83C101.79,-63.85 78.2,-48.56 59.99,-36.75"/>
<polygon fill="black" stroke="black" points="61.83,-33.78 51.53,-31.27 58.02,-39.65 61.83,-33.78"/>
</g>
<!-- slv1 -->
<g id="node8" class="node">
<title>slv1</title>
<ellipse fill="none" stroke="black" cx="104.6" cy="-18" rx="27" ry="18"/>
<text text-anchor="middle" x="104.6" y="-14.3" font-family="Times,serif" font-size="14.00">slv1</text>
</g>
<!-- splitter0&#45;&gt;slv1 -->
<g id="edge7" class="edge">
<title>splitter0&#45;&gt;slv1</title>
<path fill="none" stroke="black" d="M132.07,-72.41C127.76,-64.04 122.45,-53.71 117.64,-44.37"/>
<polygon fill="black" stroke="black" points="120.75,-42.76 113.07,-35.47 114.53,-45.96 120.75,-42.76"/>
</g>
<!-- slv2 -->
<g id="node9" class="node">
<title>slv2</title>
<ellipse fill="none" stroke="black" cx="176.6" cy="-18" rx="27" ry="18"/>
<text text-anchor="middle" x="176.6" y="-14.3" font-family="Times,serif" font-size="14.00">slv2</text>
</g>
<!-- splitter0&#45;&gt;slv2 -->
<g id="edge8" class="edge">
<title>splitter0&#45;&gt;slv2</title>
<path fill="none" stroke="black" d="M149.13,-72.41C153.43,-64.04 158.75,-53.71 163.55,-44.37"/>
<polygon fill="black" stroke="black" points="166.67,-45.96 168.13,-35.47 160.44,-42.76 166.67,-45.96"/>
</g>
<!-- slv3 -->
<g id="node10" class="node">
<title>slv3</title>
<ellipse fill="none" stroke="black" cx="248.6" cy="-18" rx="27" ry="18"/>
<text text-anchor="middle" x="248.6" y="-14.3" font-family="Times,serif" font-size="14.00">slv3</text>
</g>
<!-- splitter0&#45;&gt;slv3 -->
<g id="edge9" class="edge">
<title>splitter0&#45;&gt;slv3</title>
<path fill="none" stroke="black" d="M162.45,-74.83C179.4,-63.85 203,-48.56 221.21,-36.75"/>
<polygon fill="black" stroke="black" points="223.17,-39.65 229.66,-31.27 219.37,-33.78 223.17,-39.65"/>
</g>
</g>
</svg>
