<svg width="1000" height="507" xmlns="http://www.w3.org/2000/svg" version="1.1">
<text x="10" y="443" fill="rgb(0,0,0)">ddd</text>
<line x1="76" y1="448" x2="169" y2="448" stroke="rgb(0,0,0)" stroke-width="1" />
<line x1="72" y1="448" x2="76" y2="448" stroke="rgb(0,0,0)" stroke-width="1" />
<line x1="72" y1="448" x2="76" y2="448" stroke="rgb(0,0,0)" stroke-width="1" />
<line x1="173" y1="429" x2="228" y2="429" stroke="rgb(0,0,0)" stroke-width="1" />
<line x1="169" y1="448" x2="173" y2="429" stroke="rgb(0,0,0)" stroke-width="1" />
<line x1="169" y1="448" x2="173" y2="429" stroke="rgb(0,0,0)" stroke-width="1" />
<line x1="232" y1="448" x2="286" y2="448" stroke="rgb(0,0,0)" stroke-width="1" />
<line x1="228" y1="429" x2="232" y2="448" stroke="rgb(0,0,0)" stroke-width="1" />
<line x1="228" y1="429" x2="232" y2="448" stroke="rgb(0,0,0)" stroke-width="1" />
<line x1="290" y1="429" x2="345" y2="429" stroke="rgb(0,0,0)" stroke-width="1" />
<line x1="286" y1="448" x2="290" y2="429" stroke="rgb(0,0,0)" stroke-width="1" />
<line x1="286" y1="448" x2="290" y2="429" stroke="rgb(0,0,0)" stroke-width="1" />
<line x1="345" y1="452" x2="348" y2="439" stroke="rgb(0,0,0)" stroke-width="1" />
<line x1="348" y1="439" x2="345" y2="425" stroke="rgb(0,0,0)" stroke-width="1" />
<line x1="352" y1="452" x2="356" y2="439" stroke="rgb(0,0,0)" stroke-width="1" />
<line x1="356" y1="439" x2="352" y2="425" stroke="rgb(0,0,0)" stroke-width="1" />
<line x1="356" y1="448" x2="442" y2="448" stroke="rgb(0,0,0)" stroke-width="1" />
<line x1="446" y1="448" x2="500" y2="448" stroke="rgb(0,0,0)" stroke-width="1" />
<line x1="442" y1="448" x2="446" y2="448" stroke="rgb(0,0,0)" stroke-width="1" />
<line x1="442" y1="448" x2="446" y2="448" stroke="rgb(0,0,0)" stroke-width="1" />
<line x1="504" y1="448" x2="559" y2="448" stroke="rgb(0,0,0)" stroke-width="1" />
<line x1="500" y1="448" x2="504" y2="448" stroke="rgb(0,0,0)" stroke-width="1" />
<line x1="500" y1="448" x2="504" y2="448" stroke="rgb(0,0,0)" stroke-width="1" />
<line x1="563" y1="448" x2="637" y2="448" stroke="rgb(0,0,0)" stroke-width="1" />
<line x1="559" y1="448" x2="563" y2="448" stroke="rgb(0,0,0)" stroke-width="1" />
<line x1="559" y1="448" x2="563" y2="448" stroke="rgb(0,0,0)" stroke-width="1" />
<line x1="641" y1="429" x2="734" y2="429" stroke="rgb(0,0,0)" stroke-width="1" />
<line x1="637" y1="448" x2="641" y2="429" stroke="rgb(0,0,0)" stroke-width="1" />
<line x1="637" y1="448" x2="641" y2="429" stroke="rgb(0,0,0)" stroke-width="1" />
<line x1="738" y1="448" x2="832" y2="448" stroke="rgb(0,0,0)" stroke-width="1" />
<line x1="734" y1="429" x2="738" y2="448" stroke="rgb(0,0,0)" stroke-width="1" />
<line x1="734" y1="429" x2="738" y2="448" stroke="rgb(0,0,0)" stroke-width="1" />
<line x1="835" y1="448" x2="890" y2="448" stroke="rgb(0,0,0)" stroke-width="1" />
<line x1="832" y1="448" x2="835" y2="448" stroke="rgb(0,0,0)" stroke-width="1" />
<line x1="832" y1="448" x2="835" y2="448" stroke="rgb(0,0,0)" stroke-width="1" />
<line x1="894" y1="429" x2="948" y2="429" stroke="rgb(0,0,0)" stroke-width="1" />
<line x1="890" y1="448" x2="894" y2="429" stroke="rgb(0,0,0)" stroke-width="1" />
<line x1="890" y1="448" x2="894" y2="429" stroke="rgb(0,0,0)" stroke-width="1" />
<line x1="948" y1="452" x2="952" y2="439" stroke="rgb(0,0,0)" stroke-width="1" />
<line x1="952" y1="439" x2="948" y2="425" stroke="rgb(0,0,0)" stroke-width="1" />
<line x1="956" y1="452" x2="960" y2="439" stroke="rgb(0,0,0)" stroke-width="1" />
<line x1="960" y1="439" x2="956" y2="425" stroke="rgb(0,0,0)" stroke-width="1" />
<text x="10" y="414" fill="rgb(0,0,0)">ccc</text>
<line x1="76" y1="400" x2="130" y2="400" stroke="rgb(0,0,0)" stroke-width="1" />
<line x1="72" y1="419" x2="76" y2="400" stroke="rgb(0,0,0)" stroke-width="1" />
<line x1="72" y1="419" x2="76" y2="400" stroke="rgb(0,0,0)" stroke-width="1" />
<line x1="134" y1="419" x2="189" y2="419" stroke="rgb(0,0,0)" stroke-width="1" />
<line x1="130" y1="400" x2="134" y2="419" stroke="rgb(0,0,0)" stroke-width="1" />
<line x1="130" y1="400" x2="134" y2="419" stroke="rgb(0,0,0)" stroke-width="1" />
<line x1="193" y1="400" x2="247" y2="400" stroke="rgb(0,0,0)" stroke-width="1" />
<line x1="189" y1="419" x2="193" y2="400" stroke="rgb(0,0,0)" stroke-width="1" />
<line x1="189" y1="419" x2="193" y2="400" stroke="rgb(0,0,0)" stroke-width="1" />
<line x1="247" y1="423" x2="251" y2="409" stroke="rgb(0,0,0)" stroke-width="1" />
<line x1="251" y1="409" x2="247" y2="396" stroke="rgb(0,0,0)" stroke-width="1" />
<line x1="255" y1="423" x2="259" y2="409" stroke="rgb(0,0,0)" stroke-width="1" />
<line x1="259" y1="409" x2="255" y2="396" stroke="rgb(0,0,0)" stroke-width="1" />
<line x1="259" y1="419" x2="345" y2="419" stroke="rgb(0,0,0)" stroke-width="1" />
<line x1="348" y1="419" x2="403" y2="419" stroke="rgb(0,0,0)" stroke-width="1" />
<line x1="345" y1="419" x2="348" y2="419" stroke="rgb(0,0,0)" stroke-width="1" />
<line x1="345" y1="419" x2="348" y2="419" stroke="rgb(0,0,0)" stroke-width="1" />
<line x1="407" y1="419" x2="461" y2="419" stroke="rgb(0,0,0)" stroke-width="1" />
<line x1="403" y1="419" x2="407" y2="419" stroke="rgb(0,0,0)" stroke-width="1" />
<line x1="403" y1="419" x2="407" y2="419" stroke="rgb(0,0,0)" stroke-width="1" />
<line x1="465" y1="419" x2="539" y2="419" stroke="rgb(0,0,0)" stroke-width="1" />
<line x1="461" y1="419" x2="465" y2="419" stroke="rgb(0,0,0)" stroke-width="1" />
<line x1="461" y1="419" x2="465" y2="419" stroke="rgb(0,0,0)" stroke-width="1" />
<line x1="543" y1="400" x2="637" y2="400" stroke="rgb(0,0,0)" stroke-width="1" />
<line x1="539" y1="419" x2="543" y2="400" stroke="rgb(0,0,0)" stroke-width="1" />
<line x1="539" y1="419" x2="543" y2="400" stroke="rgb(0,0,0)" stroke-width="1" />
<line x1="641" y1="419" x2="734" y2="419" stroke="rgb(0,0,0)" stroke-width="1" />
<line x1="637" y1="400" x2="641" y2="419" stroke="rgb(0,0,0)" stroke-width="1" />
<line x1="637" y1="400" x2="641" y2="419" stroke="rgb(0,0,0)" stroke-width="1" />
<line x1="738" y1="419" x2="793" y2="419" stroke="rgb(0,0,0)" stroke-width="1" />
<line x1="734" y1="419" x2="738" y2="419" stroke="rgb(0,0,0)" stroke-width="1" />
<line x1="734" y1="419" x2="738" y2="419" stroke="rgb(0,0,0)" stroke-width="1" />
<line x1="797" y1="400" x2="851" y2="400" stroke="rgb(0,0,0)" stroke-width="1" />
<line x1="793" y1="419" x2="797" y2="400" stroke="rgb(0,0,0)" stroke-width="1" />
<line x1="793" y1="419" x2="797" y2="400" stroke="rgb(0,0,0)" stroke-width="1" />
<line x1="855" y1="419" x2="910" y2="419" stroke="rgb(0,0,0)" stroke-width="1" />
<line x1="851" y1="400" x2="855" y2="419" stroke="rgb(0,0,0)" stroke-width="1" />
<line x1="851" y1="400" x2="855" y2="419" stroke="rgb(0,0,0)" stroke-width="1" />
<line x1="910" y1="423" x2="913" y2="409" stroke="rgb(0,0,0)" stroke-width="1" />
<line x1="913" y1="409" x2="910" y2="396" stroke="rgb(0,0,0)" stroke-width="1" />
<line x1="917" y1="423" x2="921" y2="409" stroke="rgb(0,0,0)" stroke-width="1" />
<line x1="921" y1="409" x2="917" y2="396" stroke="rgb(0,0,0)" stroke-width="1" />
<line x1="921" y1="400" x2="1007" y2="400" stroke="rgb(0,0,0)" stroke-width="1" />
<text x="10" y="385" fill="rgb(0,0,0)">xxx</text>
<line x1="76" y1="370" x2="130" y2="370" stroke="rgb(0,0,0)" stroke-width="1" />
<line x1="72" y1="390" x2="76" y2="370" stroke="rgb(0,0,0)" stroke-width="1" />
<line x1="72" y1="390" x2="76" y2="370" stroke="rgb(0,0,0)" stroke-width="1" />
<line x1="134" y1="390" x2="189" y2="390" stroke="rgb(0,0,0)" stroke-width="1" />
<line x1="130" y1="370" x2="134" y2="390" stroke="rgb(0,0,0)" stroke-width="1" />
<line x1="130" y1="370" x2="134" y2="390" stroke="rgb(0,0,0)" stroke-width="1" />
<line x1="193" y1="370" x2="247" y2="370" stroke="rgb(0,0,0)" stroke-width="1" />
<line x1="189" y1="390" x2="193" y2="370" stroke="rgb(0,0,0)" stroke-width="1" />
<line x1="189" y1="390" x2="193" y2="370" stroke="rgb(0,0,0)" stroke-width="1" />
<line x1="247" y1="394" x2="251" y2="380" stroke="rgb(0,0,0)" stroke-width="1" />
<line x1="251" y1="380" x2="247" y2="366" stroke="rgb(0,0,0)" stroke-width="1" />
<line x1="255" y1="394" x2="259" y2="380" stroke="rgb(0,0,0)" stroke-width="1" />
<line x1="259" y1="380" x2="255" y2="366" stroke="rgb(0,0,0)" stroke-width="1" />
<line x1="259" y1="390" x2="345" y2="390" stroke="rgb(0,0,0)" stroke-width="1" />
<line x1="348" y1="390" x2="403" y2="390" stroke="rgb(0,0,0)" stroke-width="1" />
<line x1="345" y1="390" x2="348" y2="390" stroke="rgb(0,0,0)" stroke-width="1" />
<line x1="345" y1="390" x2="348" y2="390" stroke="rgb(0,0,0)" stroke-width="1" />
<line x1="407" y1="390" x2="461" y2="390" stroke="rgb(0,0,0)" stroke-width="1" />
<line x1="403" y1="390" x2="407" y2="390" stroke="rgb(0,0,0)" stroke-width="1" />
<line x1="403" y1="390" x2="407" y2="390" stroke="rgb(0,0,0)" stroke-width="1" />
<line x1="465" y1="390" x2="539" y2="390" stroke="rgb(0,0,0)" stroke-width="1" />
<line x1="461" y1="390" x2="465" y2="390" stroke="rgb(0,0,0)" stroke-width="1" />
<line x1="461" y1="390" x2="465" y2="390" stroke="rgb(0,0,0)" stroke-width="1" />
<line x1="543" y1="370" x2="637" y2="370" stroke="rgb(0,0,0)" stroke-width="1" />
<line x1="539" y1="390" x2="543" y2="370" stroke="rgb(0,0,0)" stroke-width="1" />
<line x1="539" y1="390" x2="543" y2="370" stroke="rgb(0,0,0)" stroke-width="1" />
<line x1="641" y1="390" x2="734" y2="390" stroke="rgb(0,0,0)" stroke-width="1" />
<line x1="637" y1="370" x2="641" y2="390" stroke="rgb(0,0,0)" stroke-width="1" />
<line x1="637" y1="370" x2="641" y2="390" stroke="rgb(0,0,0)" stroke-width="1" />
<text x="10" y="327" fill="rgb(0,0,0)">vvv</text>
<line x1="76" y1="331" x2="169" y2="331" stroke="rgb(0,0,0)" stroke-width="1" />
<line x1="72" y1="331" x2="76" y2="331" stroke="rgb(0,0,0)" stroke-width="1" />
<line x1="72" y1="331" x2="76" y2="331" stroke="rgb(0,0,0)" stroke-width="1" />
<line x1="173" y1="331" x2="228" y2="331" stroke="rgb(0,0,0)" stroke-width="1" />
<line x1="169" y1="331" x2="173" y2="331" stroke="rgb(0,0,0)" stroke-width="1" />
<line x1="169" y1="331" x2="173" y2="331" stroke="rgb(0,0,0)" stroke-width="1" />
<line x1="232" y1="312" x2="286" y2="312" stroke="rgb(0,0,0)" stroke-width="1" />
<line x1="228" y1="331" x2="232" y2="312" stroke="rgb(0,0,0)" stroke-width="1" />
<line x1="228" y1="331" x2="232" y2="312" stroke="rgb(0,0,0)" stroke-width="1" />
<line x1="290" y1="331" x2="345" y2="331" stroke="rgb(0,0,0)" stroke-width="1" />
<line x1="286" y1="312" x2="290" y2="331" stroke="rgb(0,0,0)" stroke-width="1" />
<line x1="286" y1="312" x2="290" y2="331" stroke="rgb(0,0,0)" stroke-width="1" />
<line x1="345" y1="335" x2="348" y2="322" stroke="rgb(0,0,0)" stroke-width="1" />
<line x1="348" y1="322" x2="345" y2="308" stroke="rgb(0,0,0)" stroke-width="1" />
<line x1="352" y1="335" x2="356" y2="322" stroke="rgb(0,0,0)" stroke-width="1" />
<line x1="356" y1="322" x2="352" y2="308" stroke="rgb(0,0,0)" stroke-width="1" />
<line x1="356" y1="331" x2="442" y2="331" stroke="rgb(0,0,0)" stroke-width="1" />
<line x1="356" y1="312" x2="442" y2="312" stroke="rgb(0,0,0)" stroke-width="1" />
<text x="358" y="325" fill="rgb(127,127,127)">"idle"</text>
<line x1="446" y1="331" x2="500" y2="331" stroke="rgb(0,0,0)" stroke-width="1" />
<line x1="446" y1="312" x2="500" y2="312" stroke="rgb(0,0,0)" stroke-width="1" />
<text x="448" y="325" fill="rgb(127,127,127)">"work"</text>
<line x1="442" y1="312" x2="446" y2="331" stroke="rgb(0,0,0)" stroke-width="1" />
<line x1="442" y1="331" x2="446" y2="312" stroke="rgb(0,0,0)" stroke-width="1" />
<line x1="504" y1="331" x2="559" y2="331" stroke="rgb(0,0,0)" stroke-width="1" />
<line x1="504" y1="312" x2="559" y2="312" stroke="rgb(0,0,0)" stroke-width="1" />
<text x="506" y="325" fill="rgb(127,127,127)">"idle"</text>
<line x1="500" y1="312" x2="504" y2="331" stroke="rgb(0,0,0)" stroke-width="1" />
<line x1="500" y1="331" x2="504" y2="312" stroke="rgb(0,0,0)" stroke-width="1" />
<line x1="563" y1="322" x2="637" y2="322" stroke="rgb(127,127,0)" stroke-width="1" stroke-dasharray="3,3" />
<line x1="559" y1="331" x2="563" y2="322" stroke="rgb(127,127,0)" stroke-width="1" stroke-dasharray="3,3" />
<line x1="559" y1="312" x2="563" y2="322" stroke="rgb(127,127,0)" stroke-width="1" stroke-dasharray="3,3" />
<line x1="641" y1="331" x2="734" y2="331" stroke="rgb(0,0,0)" stroke-width="1" />
<line x1="637" y1="322" x2="641" y2="331" stroke="rgb(0,0,0)" stroke-width="1" />
<line x1="637" y1="322" x2="641" y2="331" stroke="rgb(0,0,0)" stroke-width="1" />
<line x1="738" y1="322" x2="832" y2="322" stroke="rgb(255,0,0)" stroke-width="1" />
<line x1="734" y1="331" x2="738" y2="322" stroke="rgb(255,0,0)" stroke-width="1" />
<line x1="734" y1="331" x2="738" y2="322" stroke="rgb(255,0,0)" stroke-width="1" />
<text x="10" y="297" fill="rgb(0,0,0)">aaa</text>
<line x1="76" y1="302" x2="130" y2="302" stroke="rgb(0,0,0)" stroke-width="1" />
<line x1="72" y1="302" x2="76" y2="302" stroke="rgb(0,0,0)" stroke-width="1" />
<line x1="72" y1="302" x2="76" y2="302" stroke="rgb(0,0,0)" stroke-width="1" />
<line x1="134" y1="283" x2="189" y2="283" stroke="rgb(0,0,0)" stroke-width="1" />
<line x1="130" y1="302" x2="134" y2="283" stroke="rgb(0,0,0)" stroke-width="1" />
<line x1="130" y1="302" x2="134" y2="283" stroke="rgb(0,0,0)" stroke-width="1" />
<line x1="193" y1="302" x2="247" y2="302" stroke="rgb(0,0,0)" stroke-width="1" />
<line x1="189" y1="283" x2="193" y2="302" stroke="rgb(0,0,0)" stroke-width="1" />
<line x1="189" y1="283" x2="193" y2="302" stroke="rgb(0,0,0)" stroke-width="1" />
<line x1="247" y1="306" x2="251" y2="292" stroke="rgb(0,0,0)" stroke-width="1" />
<line x1="251" y1="292" x2="247" y2="279" stroke="rgb(0,0,0)" stroke-width="1" />
<line x1="255" y1="306" x2="259" y2="292" stroke="rgb(0,0,0)" stroke-width="1" />
<line x1="259" y1="292" x2="255" y2="279" stroke="rgb(0,0,0)" stroke-width="1" />
<line x1="259" y1="302" x2="345" y2="302" stroke="rgb(0,0,0)" stroke-width="1" />
<line x1="259" y1="283" x2="345" y2="283" stroke="rgb(0,0,0)" stroke-width="1" />
<text x="261" y="296" fill="rgb(127,127,127)">"idle"</text>
<line x1="348" y1="302" x2="403" y2="302" stroke="rgb(0,0,0)" stroke-width="1" />
<line x1="348" y1="283" x2="403" y2="283" stroke="rgb(0,0,0)" stroke-width="1" />
<text x="350" y="296" fill="rgb(127,127,127)">"work"</text>
<line x1="345" y1="283" x2="348" y2="302" stroke="rgb(0,0,0)" stroke-width="1" />
<line x1="345" y1="302" x2="348" y2="283" stroke="rgb(0,0,0)" stroke-width="1" />
<line x1="407" y1="302" x2="461" y2="302" stroke="rgb(0,0,0)" stroke-width="1" />
<line x1="407" y1="283" x2="461" y2="283" stroke="rgb(0,0,0)" stroke-width="1" />
<text x="409" y="296" fill="rgb(127,127,127)">"idle"</text>
<line x1="403" y1="283" x2="407" y2="302" stroke="rgb(0,0,0)" stroke-width="1" />
<line x1="403" y1="302" x2="407" y2="283" stroke="rgb(0,0,0)" stroke-width="1" />
<line x1="465" y1="292" x2="539" y2="292" stroke="rgb(127,127,0)" stroke-width="1" stroke-dasharray="3,3" />
<line x1="461" y1="302" x2="465" y2="292" stroke="rgb(127,127,0)" stroke-width="1" stroke-dasharray="3,3" />
<line x1="461" y1="283" x2="465" y2="292" stroke="rgb(127,127,0)" stroke-width="1" stroke-dasharray="3,3" />
<line x1="543" y1="302" x2="637" y2="302" stroke="rgb(0,0,0)" stroke-width="1" />
<line x1="539" y1="292" x2="543" y2="302" stroke="rgb(0,0,0)" stroke-width="1" />
<line x1="539" y1="292" x2="543" y2="302" stroke="rgb(0,0,0)" stroke-width="1" />
<line x1="641" y1="292" x2="734" y2="292" stroke="rgb(255,0,0)" stroke-width="1" />
<line x1="637" y1="302" x2="641" y2="292" stroke="rgb(255,0,0)" stroke-width="1" />
<line x1="637" y1="302" x2="641" y2="292" stroke="rgb(255,0,0)" stroke-width="1" />
<text x="10" y="268" fill="rgb(0,0,0)">amb2</text>
<line x1="76" y1="253" x2="306" y2="253" stroke="rgb(0,0,0)" stroke-width="1" />
<line x1="72" y1="273" x2="76" y2="253" stroke="rgb(0,0,0)" stroke-width="1" />
<line x1="72" y1="273" x2="76" y2="253" stroke="rgb(0,0,0)" stroke-width="1" />
<line x1="309" y1="273" x2="520" y2="273" stroke="rgb(0,0,0)" stroke-width="1" />
<line x1="306" y1="253" x2="309" y2="273" stroke="rgb(0,0,0)" stroke-width="1" />
<line x1="306" y1="253" x2="309" y2="273" stroke="rgb(0,0,0)" stroke-width="1" />
<line x1="524" y1="253" x2="910" y2="253" stroke="rgb(0,0,0)" stroke-width="1" />
<line x1="520" y1="273" x2="524" y2="253" stroke="rgb(0,0,0)" stroke-width="1" />
<line x1="520" y1="273" x2="524" y2="253" stroke="rgb(0,0,0)" stroke-width="1" />
<text x="10" y="239" fill="rgb(0,0,0)">amb1</text>
<line x1="76" y1="224" x2="286" y2="224" stroke="rgb(0,0,0)" stroke-width="1" />
<line x1="72" y1="244" x2="76" y2="224" stroke="rgb(0,0,0)" stroke-width="1" />
<line x1="72" y1="244" x2="76" y2="224" stroke="rgb(0,0,0)" stroke-width="1" />
<line x1="290" y1="244" x2="539" y2="244" stroke="rgb(0,0,0)" stroke-width="1" />
<line x1="286" y1="224" x2="290" y2="244" stroke="rgb(0,0,0)" stroke-width="1" />
<line x1="286" y1="224" x2="290" y2="244" stroke="rgb(0,0,0)" stroke-width="1" />
<line x1="543" y1="224" x2="754" y2="224" stroke="rgb(0,0,0)" stroke-width="1" />
<line x1="539" y1="244" x2="543" y2="224" stroke="rgb(0,0,0)" stroke-width="1" />
<line x1="539" y1="244" x2="543" y2="224" stroke="rgb(0,0,0)" stroke-width="1" />
<text x="10" y="210" fill="rgb(0,0,0)">amb0</text>
<text x="10" y="180" fill="rgb(0,0,0)">orx</text>
<text x="10" y="151" fill="rgb(0,0,0)">andy</text>
<text x="10" y="122" fill="rgb(0,0,0)">andx</text>
<text x="10" y="93" fill="rgb(0,0,0)">clk</text>
<line x1="76" y1="98" x2="130" y2="98" stroke="rgb(0,0,0)" stroke-width="1" />
<line x1="72" y1="98" x2="76" y2="98" stroke="rgb(0,0,0)" stroke-width="1" />
<line x1="72" y1="98" x2="76" y2="98" stroke="rgb(0,0,0)" stroke-width="1" />
<line x1="134" y1="78" x2="189" y2="78" stroke="rgb(0,0,0)" stroke-width="1" />
<line x1="130" y1="98" x2="134" y2="78" stroke="rgb(0,0,0)" stroke-width="1" />
<line x1="130" y1="98" x2="134" y2="78" stroke="rgb(0,0,0)" stroke-width="1" />
<line x1="193" y1="98" x2="247" y2="98" stroke="rgb(0,0,0)" stroke-width="1" />
<line x1="189" y1="78" x2="193" y2="98" stroke="rgb(0,0,0)" stroke-width="1" />
<line x1="189" y1="78" x2="193" y2="98" stroke="rgb(0,0,0)" stroke-width="1" />
<line x1="251" y1="78" x2="306" y2="78" stroke="rgb(0,0,0)" stroke-width="1" />
<line x1="247" y1="98" x2="251" y2="78" stroke="rgb(0,0,0)" stroke-width="1" />
<line x1="247" y1="98" x2="251" y2="78" stroke="rgb(0,0,0)" stroke-width="1" />
<line x1="309" y1="98" x2="364" y2="98" stroke="rgb(0,0,0)" stroke-width="1" />
<line x1="306" y1="78" x2="309" y2="98" stroke="rgb(0,0,0)" stroke-width="1" />
<line x1="306" y1="78" x2="309" y2="98" stroke="rgb(0,0,0)" stroke-width="1" />
<line x1="368" y1="78" x2="422" y2="78" stroke="rgb(0,0,0)" stroke-width="1" />
<line x1="364" y1="98" x2="368" y2="78" stroke="rgb(0,0,0)" stroke-width="1" />
<line x1="364" y1="98" x2="368" y2="78" stroke="rgb(0,0,0)" stroke-width="1" />
<line x1="426" y1="98" x2="481" y2="98" stroke="rgb(0,0,0)" stroke-width="1" />
<line x1="422" y1="78" x2="426" y2="98" stroke="rgb(0,0,0)" stroke-width="1" />
<line x1="422" y1="78" x2="426" y2="98" stroke="rgb(0,0,0)" stroke-width="1" />
<line x1="485" y1="78" x2="539" y2="78" stroke="rgb(0,0,0)" stroke-width="1" />
<line x1="481" y1="98" x2="485" y2="78" stroke="rgb(0,0,0)" stroke-width="1" />
<line x1="481" y1="98" x2="485" y2="78" stroke="rgb(0,0,0)" stroke-width="1" />
<line x1="543" y1="98" x2="598" y2="98" stroke="rgb(0,0,0)" stroke-width="1" />
<line x1="539" y1="78" x2="543" y2="98" stroke="rgb(0,0,0)" stroke-width="1" />
<line x1="539" y1="78" x2="543" y2="98" stroke="rgb(0,0,0)" stroke-width="1" />
<line x1="602" y1="78" x2="656" y2="78" stroke="rgb(0,0,0)" stroke-width="1" />
<line x1="598" y1="98" x2="602" y2="78" stroke="rgb(0,0,0)" stroke-width="1" />
<line x1="598" y1="98" x2="602" y2="78" stroke="rgb(0,0,0)" stroke-width="1" />
<line x1="660" y1="98" x2="715" y2="98" stroke="rgb(0,0,0)" stroke-width="1" />
<line x1="656" y1="78" x2="660" y2="98" stroke="rgb(0,0,0)" stroke-width="1" />
<line x1="656" y1="78" x2="660" y2="98" stroke="rgb(0,0,0)" stroke-width="1" />
<line x1="719" y1="78" x2="773" y2="78" stroke="rgb(0,0,0)" stroke-width="1" />
<line x1="715" y1="98" x2="719" y2="78" stroke="rgb(0,0,0)" stroke-width="1" />
<line x1="715" y1="98" x2="719" y2="78" stroke="rgb(0,0,0)" stroke-width="1" />
<line x1="777" y1="98" x2="832" y2="98" stroke="rgb(0,0,0)" stroke-width="1" />
<line x1="773" y1="78" x2="777" y2="98" stroke="rgb(0,0,0)" stroke-width="1" />
<line x1="773" y1="78" x2="777" y2="98" stroke="rgb(0,0,0)" stroke-width="1" />
<line x1="835" y1="78" x2="890" y2="78" stroke="rgb(0,0,0)" stroke-width="1" />
<line x1="832" y1="98" x2="835" y2="78" stroke="rgb(0,0,0)" stroke-width="1" />
<line x1="832" y1="98" x2="835" y2="78" stroke="rgb(0,0,0)" stroke-width="1" />
<line x1="894" y1="98" x2="948" y2="98" stroke="rgb(0,0,0)" stroke-width="1" />
<line x1="890" y1="78" x2="894" y2="98" stroke="rgb(0,0,0)" stroke-width="1" />
<line x1="890" y1="78" x2="894" y2="98" stroke="rgb(0,0,0)" stroke-width="1" />
<text x="10" y="64" fill="rgb(0,0,0)">clk2</text>
<line x1="76" y1="68" x2="169" y2="68" stroke="rgb(0,0,0)" stroke-width="1" />
<line x1="72" y1="68" x2="76" y2="68" stroke="rgb(0,0,0)" stroke-width="1" />
<line x1="72" y1="68" x2="76" y2="68" stroke="rgb(0,0,0)" stroke-width="1" />
<line x1="173" y1="49" x2="208" y2="49" stroke="rgb(0,0,0)" stroke-width="1" />
<line x1="169" y1="68" x2="173" y2="49" stroke="rgb(0,0,0)" stroke-width="1" />
<line x1="169" y1="68" x2="173" y2="49" stroke="rgb(0,0,0)" stroke-width="1" />
<line x1="212" y1="68" x2="306" y2="68" stroke="rgb(0,0,0)" stroke-width="1" />
<line x1="208" y1="49" x2="212" y2="68" stroke="rgb(0,0,0)" stroke-width="1" />
<line x1="208" y1="49" x2="212" y2="68" stroke="rgb(0,0,0)" stroke-width="1" />
<line x1="309" y1="49" x2="345" y2="49" stroke="rgb(0,0,0)" stroke-width="1" />
<line x1="306" y1="68" x2="309" y2="49" stroke="rgb(0,0,0)" stroke-width="1" />
<line x1="306" y1="68" x2="309" y2="49" stroke="rgb(0,0,0)" stroke-width="1" />
<line x1="348" y1="68" x2="442" y2="68" stroke="rgb(0,0,0)" stroke-width="1" />
<line x1="345" y1="49" x2="348" y2="68" stroke="rgb(0,0,0)" stroke-width="1" />
<line x1="345" y1="49" x2="348" y2="68" stroke="rgb(0,0,0)" stroke-width="1" />
<line x1="446" y1="49" x2="481" y2="49" stroke="rgb(0,0,0)" stroke-width="1" />
<line x1="442" y1="68" x2="446" y2="49" stroke="rgb(0,0,0)" stroke-width="1" />
<line x1="442" y1="68" x2="446" y2="49" stroke="rgb(0,0,0)" stroke-width="1" />
<line x1="485" y1="68" x2="578" y2="68" stroke="rgb(0,0,0)" stroke-width="1" />
<line x1="481" y1="49" x2="485" y2="68" stroke="rgb(0,0,0)" stroke-width="1" />
<line x1="481" y1="49" x2="485" y2="68" stroke="rgb(0,0,0)" stroke-width="1" />
<line x1="582" y1="49" x2="617" y2="49" stroke="rgb(0,0,0)" stroke-width="1" />
<line x1="578" y1="68" x2="582" y2="49" stroke="rgb(0,0,0)" stroke-width="1" />
<line x1="578" y1="68" x2="582" y2="49" stroke="rgb(0,0,0)" stroke-width="1" />
<line x1="621" y1="68" x2="715" y2="68" stroke="rgb(0,0,0)" stroke-width="1" />
<line x1="617" y1="49" x2="621" y2="68" stroke="rgb(0,0,0)" stroke-width="1" />
<line x1="617" y1="49" x2="621" y2="68" stroke="rgb(0,0,0)" stroke-width="1" />
<line x1="719" y1="49" x2="754" y2="49" stroke="rgb(0,0,0)" stroke-width="1" />
<line x1="715" y1="68" x2="719" y2="49" stroke="rgb(0,0,0)" stroke-width="1" />
<line x1="715" y1="68" x2="719" y2="49" stroke="rgb(0,0,0)" stroke-width="1" />
<line x1="758" y1="68" x2="851" y2="68" stroke="rgb(0,0,0)" stroke-width="1" />
<line x1="754" y1="49" x2="758" y2="68" stroke="rgb(0,0,0)" stroke-width="1" />
<line x1="754" y1="49" x2="758" y2="68" stroke="rgb(0,0,0)" stroke-width="1" />
<line x1="855" y1="49" x2="890" y2="49" stroke="rgb(0,0,0)" stroke-width="1" />
<line x1="851" y1="68" x2="855" y2="49" stroke="rgb(0,0,0)" stroke-width="1" />
<line x1="851" y1="68" x2="855" y2="49" stroke="rgb(0,0,0)" stroke-width="1" />
<line x1="894" y1="68" x2="987" y2="68" stroke="rgb(0,0,0)" stroke-width="1" />
<line x1="890" y1="49" x2="894" y2="68" stroke="rgb(0,0,0)" stroke-width="1" />
<line x1="890" y1="49" x2="894" y2="68" stroke="rgb(0,0,0)" stroke-width="1" />
<line x1="72" y1="477" x2="72" y2="20" stroke="rgb(229,229,229)" stroke-width="1" stroke-dasharray="1,1" />
<line x1="111" y1="477" x2="111" y2="20" stroke="rgb(229,229,229)" stroke-width="1" stroke-dasharray="1,1" />
<line x1="150" y1="477" x2="150" y2="20" stroke="rgb(229,229,229)" stroke-width="1" stroke-dasharray="1,1" />
<line x1="189" y1="477" x2="189" y2="20" stroke="rgb(229,229,229)" stroke-width="1" stroke-dasharray="1,1" />
<line x1="228" y1="477" x2="228" y2="20" stroke="rgb(229,229,229)" stroke-width="1" stroke-dasharray="1,1" />
<line x1="267" y1="477" x2="267" y2="20" stroke="rgb(229,229,229)" stroke-width="1" stroke-dasharray="1,1" />
<line x1="306" y1="477" x2="306" y2="20" stroke="rgb(229,229,229)" stroke-width="1" stroke-dasharray="1,1" />
<line x1="345" y1="477" x2="345" y2="20" stroke="rgb(229,229,229)" stroke-width="1" stroke-dasharray="1,1" />
<line x1="384" y1="477" x2="384" y2="20" stroke="rgb(229,229,229)" stroke-width="1" stroke-dasharray="1,1" />
<line x1="422" y1="477" x2="422" y2="20" stroke="rgb(229,229,229)" stroke-width="1" stroke-dasharray="1,1" />
<line x1="461" y1="477" x2="461" y2="20" stroke="rgb(229,229,229)" stroke-width="1" stroke-dasharray="1,1" />
<line x1="500" y1="477" x2="500" y2="20" stroke="rgb(229,229,229)" stroke-width="1" stroke-dasharray="1,1" />
<line x1="539" y1="477" x2="539" y2="20" stroke="rgb(229,229,229)" stroke-width="1" stroke-dasharray="1,1" />
<line x1="578" y1="477" x2="578" y2="20" stroke="rgb(229,229,229)" stroke-width="1" stroke-dasharray="1,1" />
<line x1="617" y1="477" x2="617" y2="20" stroke="rgb(229,229,229)" stroke-width="1" stroke-dasharray="1,1" />
<line x1="656" y1="477" x2="656" y2="20" stroke="rgb(229,229,229)" stroke-width="1" stroke-dasharray="1,1" />
<line x1="695" y1="477" x2="695" y2="20" stroke="rgb(229,229,229)" stroke-width="1" stroke-dasharray="1,1" />
<line x1="734" y1="477" x2="734" y2="20" stroke="rgb(229,229,229)" stroke-width="1" stroke-dasharray="1,1" />
<line x1="773" y1="477" x2="773" y2="20" stroke="rgb(229,229,229)" stroke-width="1" stroke-dasharray="1,1" />
<line x1="812" y1="477" x2="812" y2="20" stroke="rgb(229,229,229)" stroke-width="1" stroke-dasharray="1,1" />
<line x1="851" y1="477" x2="851" y2="20" stroke="rgb(229,229,229)" stroke-width="1" stroke-dasharray="1,1" />
<line x1="890" y1="477" x2="890" y2="20" stroke="rgb(229,229,229)" stroke-width="1" stroke-dasharray="1,1" />
<line x1="734" y1="477" x2="734" y2="20" stroke="rgb(127,127,127)" stroke-width="1" stroke-dasharray="15,3" />
<text x="734" y="39" fill="rgb(127,127,127)">stop</text>
<line x1="736" y1="409" x2="832" y2="439" stroke="rgb(153,0,0)" stroke-width="1" stroke-dasharray="15,3" />
<line x1="832" y1="439" x2="823" y2="434" stroke="rgb(153,0,0)" stroke-width="1" stroke-dasharray="15,3" />
<line x1="832" y1="439" x2="822" y2="437" stroke="rgb(153,0,0)" stroke-width="1" stroke-dasharray="15,3" />
<line x1="72" y1="477" x2="72" y2="20" stroke="rgb(0,127,0)" stroke-width="1" stroke-dasharray="15,3" />
<text x="10" y="10" fill="rgb(51,255,51)">ilia @v14oct2015</text>
</svg>
