<?xml version="1.0" encoding="UTF-8" standalone="no"?>
<!DOCTYPE svg PUBLIC "-//W3C//DTD SVG 1.1//EN"
 "http://www.w3.org/Graphics/SVG/1.1/DTD/svg11.dtd">
<!-- Generated by graphviz version 2.46.1 (20210213.1702)
 -->
<!-- Title: x4x4 Pages: 1 -->
<svg width="406pt" height="260pt"
 viewBox="0.00 0.00 406.42 260.00" xmlns="http://www.w3.org/2000/svg" xmlns:xlink="http://www.w3.org/1999/xlink">
<g id="graph0" class="graph" transform="scale(1 1) rotate(0) translate(4 256)">
<title>x4x4</title>
<polygon fill="white" stroke="transparent" points="-4,4 -4,-256 402.42,-256 402.42,4 -4,4"/>
<!-- mst0 -->
<g id="node1" class="node">
<title>mst0</title>
<ellipse fill="none" stroke="black" cx="44.21" cy="-234" rx="29.63" ry="18"/>
<text text-anchor="middle" x="44.21" y="-229.8" font-family="Times,serif" font-size="14.00">mst0</text>
</g>
<!-- splitter0 -->
<g id="node2" class="node">
<title>splitter0</title>
<ellipse fill="none" stroke="black" cx="44.21" cy="-162" rx="42.87" ry="18"/>
<text text-anchor="middle" x="44.21" y="-157.8" font-family="Times,serif" font-size="14.00">splitter0</text>
</g>
<!-- mst0&#45;&gt;splitter0 -->
<g id="edge1" class="edge">
<title>mst0&#45;&gt;splitter0</title>
<path fill="none" stroke="black" d="M44.21,-215.7C44.21,-207.98 44.21,-198.71 44.21,-190.11"/>
<polygon fill="black" stroke="black" points="47.71,-190.1 44.21,-180.1 40.71,-190.1 47.71,-190.1"/>
</g>
<!-- merger0 -->
<g id="node9" class="node">
<title>merger0</title>
<ellipse fill="none" stroke="black" cx="43.21" cy="-90" rx="43.42" ry="18"/>
<text text-anchor="middle" x="43.21" y="-85.8" font-family="Times,serif" font-size="14.00">merger0</text>
</g>
<!-- splitter0&#45;&gt;merger0 -->
<g id="edge5" class="edge">
<title>splitter0&#45;&gt;merger0</title>
<path fill="none" stroke="black" d="M43.96,-143.7C43.85,-135.98 43.72,-126.71 43.6,-118.11"/>
<polygon fill="black" stroke="black" points="47.1,-118.05 43.45,-108.1 40.1,-118.15 47.1,-118.05"/>
</g>
<!-- merger1 -->
<g id="node10" class="node">
<title>merger1</title>
<ellipse fill="none" stroke="black" cx="147.21" cy="-90" rx="43.42" ry="18"/>
<text text-anchor="middle" x="147.21" y="-85.8" font-family="Times,serif" font-size="14.00">merger1</text>
</g>
<!-- splitter0&#45;&gt;merger1 -->
<g id="edge9" class="edge">
<title>splitter0&#45;&gt;merger1</title>
<path fill="none" stroke="black" d="M66.05,-146.15C80.8,-136.13 100.47,-122.76 116.75,-111.7"/>
<polygon fill="black" stroke="black" points="119.09,-114.34 125.4,-105.82 115.16,-108.55 119.09,-114.34"/>
</g>
<!-- merger2 -->
<g id="node11" class="node">
<title>merger2</title>
<ellipse fill="none" stroke="black" cx="251.21" cy="-90" rx="43.42" ry="18"/>
<text text-anchor="middle" x="251.21" y="-85.8" font-family="Times,serif" font-size="14.00">merger2</text>
</g>
<!-- splitter0&#45;&gt;merger2 -->
<g id="edge13" class="edge">
<title>splitter0&#45;&gt;merger2</title>
<path fill="none" stroke="black" d="M76.55,-150.06C112.3,-137.97 169.99,-118.47 209.2,-105.2"/>
<polygon fill="black" stroke="black" points="210.4,-108.5 218.75,-101.98 208.16,-101.86 210.4,-108.5"/>
</g>
<!-- merger3 -->
<g id="node12" class="node">
<title>merger3</title>
<ellipse fill="none" stroke="black" cx="355.21" cy="-90" rx="43.42" ry="18"/>
<text text-anchor="middle" x="355.21" y="-85.8" font-family="Times,serif" font-size="14.00">merger3</text>
</g>
<!-- splitter0&#45;&gt;merger3 -->
<g id="edge17" class="edge">
<title>splitter0&#45;&gt;merger3</title>
<path fill="none" stroke="black" d="M75.55,-149.73C82,-147.65 88.78,-145.62 95.21,-144 186.19,-121.1 212.16,-130.64 303.21,-108 306.58,-107.16 310.06,-106.21 313.53,-105.21"/>
<polygon fill="black" stroke="black" points="314.69,-108.51 323.24,-102.25 312.66,-101.82 314.69,-108.51"/>
</g>
<!-- mst1 -->
<g id="node3" class="node">
<title>mst1</title>
<ellipse fill="none" stroke="black" cx="147.21" cy="-234" rx="29.63" ry="18"/>
<text text-anchor="middle" x="147.21" y="-229.8" font-family="Times,serif" font-size="14.00">mst1</text>
</g>
<!-- splitter1 -->
<g id="node4" class="node">
<title>splitter1</title>
<ellipse fill="none" stroke="black" cx="147.21" cy="-162" rx="42.87" ry="18"/>
<text text-anchor="middle" x="147.21" y="-157.8" font-family="Times,serif" font-size="14.00">splitter1</text>
</g>
<!-- mst1&#45;&gt;splitter1 -->
<g id="edge2" class="edge">
<title>mst1&#45;&gt;splitter1</title>
<path fill="none" stroke="black" d="M147.21,-215.7C147.21,-207.98 147.21,-198.71 147.21,-190.11"/>
<polygon fill="black" stroke="black" points="150.71,-190.1 147.21,-180.1 143.71,-190.1 150.71,-190.1"/>
</g>
<!-- splitter1&#45;&gt;merger0 -->
<g id="edge6" class="edge">
<title>splitter1&#45;&gt;merger0</title>
<path fill="none" stroke="black" d="M125.41,-146.33C110.29,-136.15 89.97,-122.47 73.31,-111.26"/>
<polygon fill="black" stroke="black" points="75.23,-108.34 64.98,-105.65 71.32,-114.14 75.23,-108.34"/>
</g>
<!-- splitter1&#45;&gt;merger1 -->
<g id="edge10" class="edge">
<title>splitter1&#45;&gt;merger1</title>
<path fill="none" stroke="black" d="M147.21,-143.7C147.21,-135.98 147.21,-126.71 147.21,-118.11"/>
<polygon fill="black" stroke="black" points="150.71,-118.1 147.21,-108.1 143.71,-118.1 150.71,-118.1"/>
</g>
<!-- splitter1&#45;&gt;merger2 -->
<g id="edge14" class="edge">
<title>splitter1&#45;&gt;merger2</title>
<path fill="none" stroke="black" d="M169.01,-146.33C184.13,-136.15 204.45,-122.47 221.11,-111.26"/>
<polygon fill="black" stroke="black" points="223.09,-114.14 229.44,-105.65 219.19,-108.34 223.09,-114.14"/>
</g>
<!-- splitter1&#45;&gt;merger3 -->
<g id="edge18" class="edge">
<title>splitter1&#45;&gt;merger3</title>
<path fill="none" stroke="black" d="M179.71,-150.06C215.63,-137.97 273.6,-118.47 313,-105.2"/>
<polygon fill="black" stroke="black" points="314.23,-108.48 322.59,-101.98 312,-101.85 314.23,-108.48"/>
</g>
<!-- mst2 -->
<g id="node5" class="node">
<title>mst2</title>
<ellipse fill="none" stroke="black" cx="250.21" cy="-234" rx="29.63" ry="18"/>
<text text-anchor="middle" x="250.21" y="-229.8" font-family="Times,serif" font-size="14.00">mst2</text>
</g>
<!-- splitter2 -->
<g id="node6" class="node">
<title>splitter2</title>
<ellipse fill="none" stroke="black" cx="250.21" cy="-162" rx="42.87" ry="18"/>
<text text-anchor="middle" x="250.21" y="-157.8" font-family="Times,serif" font-size="14.00">splitter2</text>
</g>
<!-- mst2&#45;&gt;splitter2 -->
<g id="edge3" class="edge">
<title>mst2&#45;&gt;splitter2</title>
<path fill="none" stroke="black" d="M250.21,-215.7C250.21,-207.98 250.21,-198.71 250.21,-190.11"/>
<polygon fill="black" stroke="black" points="253.71,-190.1 250.21,-180.1 246.71,-190.1 253.71,-190.1"/>
</g>
<!-- splitter2&#45;&gt;merger0 -->
<g id="edge7" class="edge">
<title>splitter2&#45;&gt;merger0</title>
<path fill="none" stroke="black" d="M217.86,-150.06C182.12,-137.97 124.43,-118.47 85.21,-105.2"/>
<polygon fill="black" stroke="black" points="86.26,-101.86 75.67,-101.98 84.02,-108.5 86.26,-101.86"/>
</g>
<!-- splitter2&#45;&gt;merger1 -->
<g id="edge11" class="edge">
<title>splitter2&#45;&gt;merger1</title>
<path fill="none" stroke="black" d="M228.36,-146.15C213.62,-136.13 193.95,-122.76 177.66,-111.7"/>
<polygon fill="black" stroke="black" points="179.26,-108.55 169.02,-105.82 175.32,-114.34 179.26,-108.55"/>
</g>
<!-- splitter2&#45;&gt;merger2 -->
<g id="edge15" class="edge">
<title>splitter2&#45;&gt;merger2</title>
<path fill="none" stroke="black" d="M250.46,-143.7C250.57,-135.98 250.7,-126.71 250.82,-118.11"/>
<polygon fill="black" stroke="black" points="254.32,-118.15 250.96,-108.1 247.32,-118.05 254.32,-118.15"/>
</g>
<!-- splitter2&#45;&gt;merger3 -->
<g id="edge19" class="edge">
<title>splitter2&#45;&gt;merger3</title>
<path fill="none" stroke="black" d="M271.96,-146.5C287.21,-136.33 307.79,-122.61 324.67,-111.36"/>
<polygon fill="black" stroke="black" points="326.74,-114.19 333.12,-105.73 322.86,-108.36 326.74,-114.19"/>
</g>
<!-- mst3 -->
<g id="node7" class="node">
<title>mst3</title>
<ellipse fill="none" stroke="black" cx="353.21" cy="-234" rx="29.63" ry="18"/>
<text text-anchor="middle" x="353.21" y="-229.8" font-family="Times,serif" font-size="14.00">mst3</text>
</g>
<!-- splitter3 -->
<g id="node8" class="node">
<title>splitter3</title>
<ellipse fill="none" stroke="black" cx="353.21" cy="-162" rx="42.87" ry="18"/>
<text text-anchor="middle" x="353.21" y="-157.8" font-family="Times,serif" font-size="14.00">splitter3</text>
</g>
<!-- mst3&#45;&gt;splitter3 -->
<g id="edge4" class="edge">
<title>mst3&#45;&gt;splitter3</title>
<path fill="none" stroke="black" d="M353.21,-215.7C353.21,-207.98 353.21,-198.71 353.21,-190.11"/>
<polygon fill="black" stroke="black" points="356.71,-190.1 353.21,-180.1 349.71,-190.1 356.71,-190.1"/>
</g>
<!-- splitter3&#45;&gt;merger0 -->
<g id="edge8" class="edge">
<title>splitter3&#45;&gt;merger0</title>
<path fill="none" stroke="black" d="M321.87,-149.74C315.42,-147.65 308.63,-145.62 302.21,-144 211.66,-121.17 185.82,-130.57 95.21,-108 91.83,-107.16 88.36,-106.21 84.89,-105.21"/>
<polygon fill="black" stroke="black" points="85.76,-101.81 75.18,-102.25 83.72,-108.51 85.76,-101.81"/>
</g>
<!-- splitter3&#45;&gt;merger1 -->
<g id="edge12" class="edge">
<title>splitter3&#45;&gt;merger1</title>
<path fill="none" stroke="black" d="M321.02,-150.06C285.45,-137.97 228.03,-118.47 189.01,-105.2"/>
<polygon fill="black" stroke="black" points="190.1,-101.88 179.51,-101.98 187.85,-108.51 190.1,-101.88"/>
</g>
<!-- splitter3&#45;&gt;merger2 -->
<g id="edge16" class="edge">
<title>splitter3&#45;&gt;merger2</title>
<path fill="none" stroke="black" d="M331.58,-146.15C316.97,-136.13 297.49,-122.76 281.37,-111.7"/>
<polygon fill="black" stroke="black" points="283.03,-108.6 272.81,-105.82 279.07,-114.37 283.03,-108.6"/>
</g>
<!-- splitter3&#45;&gt;merger3 -->
<g id="edge20" class="edge">
<title>splitter3&#45;&gt;merger3</title>
<path fill="none" stroke="black" d="M353.7,-143.7C353.92,-135.98 354.19,-126.71 354.43,-118.11"/>
<polygon fill="black" stroke="black" points="357.93,-118.2 354.72,-108.1 350.94,-118 357.93,-118.2"/>
</g>
<!-- slv0 -->
<g id="node13" class="node">
<title>slv0</title>
<ellipse fill="none" stroke="black" cx="43.21" cy="-18" rx="27.27" ry="18"/>
<text text-anchor="middle" x="43.21" y="-13.8" font-family="Times,serif" font-size="14.00">slv0</text>
</g>
<!-- merger0&#45;&gt;slv0 -->
<g id="edge21" class="edge">
<title>merger0&#45;&gt;slv0</title>
<path fill="none" stroke="black" d="M43.21,-71.7C43.21,-63.98 43.21,-54.71 43.21,-46.11"/>
<polygon fill="black" stroke="black" points="46.71,-46.1 43.21,-36.1 39.71,-46.1 46.71,-46.1"/>
</g>
<!-- slv1 -->
<g id="node14" class="node">
<title>slv1</title>
<ellipse fill="none" stroke="black" cx="147.21" cy="-18" rx="27.27" ry="18"/>
<text text-anchor="middle" x="147.21" y="-13.8" font-family="Times,serif" font-size="14.00">slv1</text>
</g>
<!-- merger1&#45;&gt;slv1 -->
<g id="edge22" class="edge">
<title>merger1&#45;&gt;slv1</title>
<path fill="none" stroke="black" d="M147.21,-71.7C147.21,-63.98 147.21,-54.71 147.21,-46.11"/>
<polygon fill="black" stroke="black" points="150.71,-46.1 147.21,-36.1 143.71,-46.1 150.71,-46.1"/>
</g>
<!-- slv2 -->
<g id="node15" class="node">
<title>slv2</title>
<ellipse fill="none" stroke="black" cx="251.21" cy="-18" rx="27.27" ry="18"/>
<text text-anchor="middle" x="251.21" y="-13.8" font-family="Times,serif" font-size="14.00">slv2</text>
</g>
<!-- merger2&#45;&gt;slv2 -->
<g id="edge23" class="edge">
<title>merger2&#45;&gt;slv2</title>
<path fill="none" stroke="black" d="M251.21,-71.7C251.21,-63.98 251.21,-54.71 251.21,-46.11"/>
<polygon fill="black" stroke="black" points="254.71,-46.1 251.21,-36.1 247.71,-46.1 254.71,-46.1"/>
</g>
<!-- slv3 -->
<g id="node16" class="node">
<title>slv3</title>
<ellipse fill="none" stroke="black" cx="355.21" cy="-18" rx="27.27" ry="18"/>
<text text-anchor="middle" x="355.21" y="-13.8" font-family="Times,serif" font-size="14.00">slv3</text>
</g>
<!-- merger3&#45;&gt;slv3 -->
<g id="edge24" class="edge">
<title>merger3&#45;&gt;slv3</title>
<path fill="none" stroke="black" d="M355.21,-71.7C355.21,-63.98 355.21,-54.71 355.21,-46.11"/>
<polygon fill="black" stroke="black" points="358.71,-46.1 355.21,-36.1 351.71,-46.1 358.71,-46.1"/>
</g>
</g>
</svg>
