<svg width="1200" height="699" xmlns="http://www.w3.org/2000/svg" version="1.1">
<line x1="615" y1="515" x2="648" y2="515" stroke="rgb(70,30,0)" stroke-width="1" />
<line x1="648" y1="515" x2="722" y2="515" stroke="rgb(70,30,0)" stroke-width="1" />
<line x1="722" y1="515" x2="722" y2="496" stroke="rgb(70,30,0)" stroke-width="1" />
<line x1="722" y1="438" x2="757" y2="438" stroke="rgb(70,30,0)" stroke-width="1" />
<line x1="722" y1="438" x2="722" y2="420" stroke="rgb(70,30,0)" stroke-width="1" />
<line x1="722" y1="420" x2="615" y2="420" stroke="rgb(70,30,0)" stroke-width="1" />
<line x1="648" y1="515" x2="642" y2="520" stroke="rgb(70,30,0)" stroke-width="1" />
<line x1="615" y1="441" x2="615" y2="515" stroke="rgb(70,30,0)" stroke-width="1" />
<line x1="733" y1="503" x2="740" y2="501" stroke="rgb(70,30,0)" stroke-width="1" />
<line x1="722" y1="489" x2="727" y2="484" stroke="rgb(70,30,0)" stroke-width="1" />
<line x1="727" y1="484" x2="734" y2="482" stroke="rgb(70,30,0)" stroke-width="1" />
<line x1="734" y1="482" x2="740" y2="484" stroke="rgb(70,30,0)" stroke-width="1" />
<line x1="733" y1="503" x2="726" y2="501" stroke="rgb(70,30,0)" stroke-width="1" />
<line x1="661" y1="525" x2="659" y2="531" stroke="rgb(70,30,0)" stroke-width="1" />
<line x1="651" y1="534" x2="651" y2="544" stroke="rgb(70,30,0)" stroke-width="1" />
<line x1="599" y1="441" x2="615" y2="441" stroke="rgb(70,30,0)" stroke-width="1" />
<line x1="643" y1="532" x2="651" y2="534" stroke="rgb(70,30,0)" stroke-width="1" />
<line x1="616" y1="486" x2="599" y2="486" stroke="rgb(70,30,0)" stroke-width="1" />
<line x1="615" y1="420" x2="615" y2="441" stroke="rgb(70,30,0)" stroke-width="1" />
<line x1="651" y1="534" x2="659" y2="531" stroke="rgb(70,30,0)" stroke-width="1" />
<line x1="660" y1="519" x2="661" y2="525" stroke="rgb(70,30,0)" stroke-width="1" />
<line x1="722" y1="496" x2="722" y2="438" stroke="rgb(70,30,0)" stroke-width="1" />
<line x1="655" y1="515" x2="660" y2="519" stroke="rgb(70,30,0)" stroke-width="1" />
<line x1="744" y1="489" x2="744" y2="496" stroke="rgb(70,30,0)" stroke-width="1" />
<line x1="740" y1="484" x2="744" y2="489" stroke="rgb(70,30,0)" stroke-width="1" />
<line x1="744" y1="492" x2="755" y2="492" stroke="rgb(70,30,0)" stroke-width="1" />
<line x1="726" y1="501" x2="722" y2="496" stroke="rgb(70,30,0)" stroke-width="1" />
<line x1="744" y1="496" x2="740" y2="501" stroke="rgb(70,30,0)" stroke-width="1" />
<line x1="642" y1="527" x2="643" y2="532" stroke="rgb(70,30,0)" stroke-width="1" />
<line x1="642" y1="527" x2="642" y2="520" stroke="rgb(70,30,0)" stroke-width="1" />
<line x1="631" y1="433" x2="626" y2="433" stroke="rgb(70,30,0)" stroke-width="1" />
<line x1="626" y1="433" x2="622" y2="435" stroke="rgb(70,30,0)" stroke-width="1" />
<line x1="622" y1="435" x2="622" y2="442" stroke="rgb(70,30,0)" stroke-width="1" />
<line x1="622" y1="442" x2="624" y2="445" stroke="rgb(70,30,0)" stroke-width="1" />
<line x1="624" y1="445" x2="630" y2="445" stroke="rgb(70,30,0)" stroke-width="1" />
<line x1="635" y1="433" x2="635" y2="439" stroke="rgb(70,30,0)" stroke-width="1" />
<line x1="634" y1="445" x2="635" y2="439" stroke="rgb(70,30,0)" stroke-width="1" />
<line x1="643" y1="433" x2="638" y2="438" stroke="rgb(70,30,0)" stroke-width="1" />
<line x1="635" y1="439" x2="638" y2="438" stroke="rgb(70,30,0)" stroke-width="1" />
<line x1="638" y1="438" x2="642" y2="444" stroke="rgb(70,30,0)" stroke-width="1" />
<line x1="619" y1="480" x2="621" y2="480" stroke="rgb(70,30,0)" stroke-width="1" />
<line x1="625" y1="480" x2="627" y2="482" stroke="rgb(70,30,0)" stroke-width="1" />
<line x1="625" y1="480" x2="621" y2="480" stroke="rgb(70,30,0)" stroke-width="1" />
<line x1="627" y1="482" x2="627" y2="491" stroke="rgb(70,30,0)" stroke-width="1" />
<line x1="627" y1="491" x2="624" y2="492" stroke="rgb(70,30,0)" stroke-width="1" />
<line x1="624" y1="492" x2="621" y2="492" stroke="rgb(70,30,0)" stroke-width="1" />
<line x1="618" y1="492" x2="621" y2="492" stroke="rgb(70,30,0)" stroke-width="1" />
<line x1="621" y1="480" x2="621" y2="492" stroke="rgb(70,30,0)" stroke-width="1" />
<line x1="708" y1="448" x2="712" y2="448" stroke="rgb(70,30,0)" stroke-width="1" />
<line x1="712" y1="448" x2="714" y2="446" stroke="rgb(70,30,0)" stroke-width="1" />
<line x1="708" y1="448" x2="706" y2="445" stroke="rgb(70,30,0)" stroke-width="1" />
<line x1="706" y1="445" x2="706" y2="440" stroke="rgb(70,30,0)" stroke-width="1" />
<line x1="706" y1="440" x2="708" y2="437" stroke="rgb(70,30,0)" stroke-width="1" />
<line x1="708" y1="437" x2="712" y2="437" stroke="rgb(70,30,0)" stroke-width="1" />
<line x1="712" y1="437" x2="714" y2="440" stroke="rgb(70,30,0)" stroke-width="1" />
<line x1="714" y1="440" x2="714" y2="446" stroke="rgb(70,30,0)" stroke-width="1" />
<line x1="712" y1="444" x2="714" y2="450" stroke="rgb(70,30,0)" stroke-width="1" />
<line x1="619" y1="401" x2="621" y2="401" stroke="rgb(70,30,0)" stroke-width="1" />
<line x1="625" y1="401" x2="627" y2="403" stroke="rgb(70,30,0)" stroke-width="1" />
<line x1="625" y1="401" x2="621" y2="401" stroke="rgb(70,30,0)" stroke-width="1" />
<line x1="627" y1="403" x2="627" y2="411" stroke="rgb(70,30,0)" stroke-width="1" />
<line x1="627" y1="411" x2="624" y2="413" stroke="rgb(70,30,0)" stroke-width="1" />
<line x1="624" y1="413" x2="621" y2="413" stroke="rgb(70,30,0)" stroke-width="1" />
<line x1="618" y1="413" x2="621" y2="413" stroke="rgb(70,30,0)" stroke-width="1" />
<line x1="621" y1="401" x2="621" y2="413" stroke="rgb(70,30,0)" stroke-width="1" />
<line x1="631" y1="413" x2="631" y2="407" stroke="rgb(70,30,0)" stroke-width="1" />
<line x1="630" y1="403" x2="633" y2="401" stroke="rgb(70,30,0)" stroke-width="1" />
<line x1="630" y1="403" x2="631" y2="407" stroke="rgb(70,30,0)" stroke-width="1" />
<line x1="633" y1="401" x2="639" y2="401" stroke="rgb(70,30,0)" stroke-width="1" />
<line x1="631" y1="407" x2="636" y2="407" stroke="rgb(70,30,0)" stroke-width="1" />
<line x1="643" y1="413" x2="643" y2="407" stroke="rgb(70,30,0)" stroke-width="1" />
<line x1="642" y1="403" x2="645" y2="401" stroke="rgb(70,30,0)" stroke-width="1" />
<line x1="642" y1="403" x2="643" y2="407" stroke="rgb(70,30,0)" stroke-width="1" />
<line x1="645" y1="401" x2="651" y2="401" stroke="rgb(70,30,0)" stroke-width="1" />
<line x1="643" y1="407" x2="648" y2="407" stroke="rgb(70,30,0)" stroke-width="1" />
<line x1="655" y1="413" x2="655" y2="408" stroke="rgb(70,30,0)" stroke-width="1" />
<line x1="654" y1="403" x2="656" y2="401" stroke="rgb(70,30,0)" stroke-width="1" />
<line x1="654" y1="403" x2="655" y2="408" stroke="rgb(70,30,0)" stroke-width="1" />
<line x1="656" y1="401" x2="661" y2="401" stroke="rgb(70,30,0)" stroke-width="1" />
<line x1="661" y1="401" x2="663" y2="403" stroke="rgb(70,30,0)" stroke-width="1" />
<line x1="663" y1="403" x2="663" y2="406" stroke="rgb(70,30,0)" stroke-width="1" />
<line x1="663" y1="406" x2="660" y2="408" stroke="rgb(70,30,0)" stroke-width="1" />
<line x1="660" y1="408" x2="655" y2="408" stroke="rgb(70,30,0)" stroke-width="1" />
<line x1="655" y1="408" x2="660" y2="413" stroke="rgb(70,30,0)" stroke-width="1" />
<line x1="660" y1="413" x2="662" y2="412" stroke="rgb(70,30,0)" stroke-width="1" />
<line x1="639" y1="512" x2="639" y2="507" stroke="rgb(70,30,0)" stroke-width="1" />
<line x1="638" y1="502" x2="640" y2="500" stroke="rgb(70,30,0)" stroke-width="1" />
<line x1="638" y1="502" x2="639" y2="507" stroke="rgb(70,30,0)" stroke-width="1" />
<line x1="640" y1="500" x2="645" y2="500" stroke="rgb(70,30,0)" stroke-width="1" />
<line x1="645" y1="500" x2="647" y2="503" stroke="rgb(70,30,0)" stroke-width="1" />
<line x1="647" y1="503" x2="647" y2="506" stroke="rgb(70,30,0)" stroke-width="1" />
<line x1="647" y1="506" x2="644" y2="507" stroke="rgb(70,30,0)" stroke-width="1" />
<line x1="644" y1="507" x2="639" y2="507" stroke="rgb(70,30,0)" stroke-width="1" />
<line x1="639" y1="507" x2="644" y2="512" stroke="rgb(70,30,0)" stroke-width="1" />
<line x1="644" y1="512" x2="646" y2="512" stroke="rgb(70,30,0)" stroke-width="1" />
<line x1="650" y1="512" x2="650" y2="500" stroke="rgb(70,30,0)" stroke-width="1" />
<line x1="650" y1="500" x2="659" y2="512" stroke="rgb(70,30,0)" stroke-width="1" />
<line x1="659" y1="512" x2="659" y2="500" stroke="rgb(70,30,0)" stroke-width="1" />
<line x1="692" y1="500" x2="697" y2="500" stroke="rgb(70,30,0)" stroke-width="1" />
<line x1="697" y1="500" x2="698" y2="497" stroke="rgb(70,30,0)" stroke-width="1" />
<line x1="692" y1="500" x2="690" y2="497" stroke="rgb(70,30,0)" stroke-width="1" />
<line x1="690" y1="497" x2="690" y2="492" stroke="rgb(70,30,0)" stroke-width="1" />
<line x1="690" y1="492" x2="692" y2="488" stroke="rgb(70,30,0)" stroke-width="1" />
<line x1="692" y1="488" x2="696" y2="488" stroke="rgb(70,30,0)" stroke-width="1" />
<line x1="696" y1="488" x2="698" y2="491" stroke="rgb(70,30,0)" stroke-width="1" />
<line x1="698" y1="491" x2="698" y2="497" stroke="rgb(70,30,0)" stroke-width="1" />
<line x1="696" y1="496" x2="698" y2="501" stroke="rgb(70,30,0)" stroke-width="1" />
<line x1="702" y1="500" x2="702" y2="488" stroke="rgb(70,30,0)" stroke-width="1" />
<line x1="702" y1="488" x2="710" y2="500" stroke="rgb(70,30,0)" stroke-width="1" />
<line x1="710" y1="500" x2="710" y2="488" stroke="rgb(70,30,0)" stroke-width="1" />
<line x1="459" y1="539" x2="451" y2="553" stroke="rgb(70,30,0)" stroke-width="1" />
<line x1="451" y1="553" x2="436" y2="555" stroke="rgb(70,30,0)" stroke-width="1" />
<line x1="436" y1="555" x2="423" y2="551" stroke="rgb(70,30,0)" stroke-width="1" />
<line x1="423" y1="551" x2="419" y2="540" stroke="rgb(70,30,0)" stroke-width="1" />
<line x1="419" y1="540" x2="403" y2="542" stroke="rgb(70,30,0)" stroke-width="1" />
<line x1="403" y1="542" x2="387" y2="541" stroke="rgb(70,30,0)" stroke-width="1" />
<line x1="387" y1="541" x2="376" y2="534" stroke="rgb(70,30,0)" stroke-width="1" />
<line x1="376" y1="534" x2="375" y2="520" stroke="rgb(70,30,0)" stroke-width="1" />
<line x1="375" y1="520" x2="379" y2="509" stroke="rgb(70,30,0)" stroke-width="1" />
<line x1="379" y1="509" x2="372" y2="497" stroke="rgb(70,30,0)" stroke-width="1" />
<line x1="372" y1="497" x2="372" y2="484" stroke="rgb(70,30,0)" stroke-width="1" />
<line x1="372" y1="484" x2="377" y2="472" stroke="rgb(70,30,0)" stroke-width="1" />
<line x1="377" y1="472" x2="389" y2="469" stroke="rgb(70,30,0)" stroke-width="1" />
<line x1="389" y1="469" x2="399" y2="468" stroke="rgb(70,30,0)" stroke-width="1" />
<line x1="399" y1="468" x2="402" y2="456" stroke="rgb(70,30,0)" stroke-width="1" />
<line x1="402" y1="456" x2="410" y2="449" stroke="rgb(70,30,0)" stroke-width="1" />
<line x1="410" y1="449" x2="422" y2="449" stroke="rgb(70,30,0)" stroke-width="1" />
<line x1="422" y1="449" x2="430" y2="454" stroke="rgb(70,30,0)" stroke-width="1" />
<line x1="430" y1="454" x2="435" y2="465" stroke="rgb(70,30,0)" stroke-width="1" />
<line x1="435" y1="465" x2="449" y2="461" stroke="rgb(70,30,0)" stroke-width="1" />
<line x1="449" y1="461" x2="458" y2="460" stroke="rgb(70,30,0)" stroke-width="1" />
<line x1="458" y1="460" x2="468" y2="462" stroke="rgb(70,30,0)" stroke-width="1" />
<line x1="468" y1="462" x2="478" y2="469" stroke="rgb(70,30,0)" stroke-width="1" />
<line x1="478" y1="469" x2="482" y2="483" stroke="rgb(70,30,0)" stroke-width="1" />
<line x1="482" y1="483" x2="478" y2="496" stroke="rgb(70,30,0)" stroke-width="1" />
<line x1="478" y1="496" x2="486" y2="505" stroke="rgb(70,30,0)" stroke-width="1" />
<line x1="486" y1="505" x2="489" y2="513" stroke="rgb(70,30,0)" stroke-width="1" />
<line x1="487" y1="522" x2="487" y2="522" stroke="rgb(70,30,0)" stroke-width="1" />
<line x1="489" y1="513" x2="487" y2="522" stroke="rgb(70,30,0)" stroke-width="1" />
<line x1="487" y1="522" x2="483" y2="530" stroke="rgb(70,30,0)" stroke-width="1" />
<line x1="483" y1="530" x2="472" y2="535" stroke="rgb(70,30,0)" stroke-width="1" />
<line x1="472" y1="535" x2="459" y2="539" stroke="rgb(70,30,0)" stroke-width="1" />
<line x1="281" y1="457" x2="281" y2="417" stroke="rgb(70,30,0)" stroke-width="1" />
<line x1="281" y1="417" x2="341" y2="417" stroke="rgb(70,30,0)" stroke-width="1" />
<line x1="341" y1="417" x2="360" y2="437" stroke="rgb(70,30,0)" stroke-width="1" />
<line x1="360" y1="437" x2="341" y2="457" stroke="rgb(70,30,0)" stroke-width="1" />
<line x1="341" y1="457" x2="281" y2="457" stroke="rgb(70,30,0)" stroke-width="1" />
<line x1="360" y1="437" x2="380" y2="437" stroke="rgb(70,30,0)" stroke-width="1" />
<circle cx="829" cy="437" r="11" fill="rgb(70,30,0)" />
<circle cx="555" cy="441" r="11" fill="rgb(70,30,0)" />
<circle cx="555" cy="349" r="11" fill="rgb(70,30,0)" />
<circle cx="547" cy="484" r="11" fill="rgb(70,30,0)" />
<circle cx="547" cy="560" r="11" fill="rgb(70,30,0)" />
<line x1="959" y1="468" x2="952" y2="482" stroke="rgb(70,30,0)" stroke-width="1" />
<line x1="952" y1="482" x2="936" y2="484" stroke="rgb(70,30,0)" stroke-width="1" />
<line x1="936" y1="484" x2="923" y2="479" stroke="rgb(70,30,0)" stroke-width="1" />
<line x1="923" y1="479" x2="919" y2="469" stroke="rgb(70,30,0)" stroke-width="1" />
<line x1="919" y1="469" x2="903" y2="471" stroke="rgb(70,30,0)" stroke-width="1" />
<line x1="903" y1="471" x2="888" y2="470" stroke="rgb(70,30,0)" stroke-width="1" />
<line x1="888" y1="470" x2="877" y2="462" stroke="rgb(70,30,0)" stroke-width="1" />
<line x1="877" y1="462" x2="875" y2="449" stroke="rgb(70,30,0)" stroke-width="1" />
<line x1="875" y1="449" x2="879" y2="437" stroke="rgb(70,30,0)" stroke-width="1" />
<line x1="879" y1="437" x2="873" y2="426" stroke="rgb(70,30,0)" stroke-width="1" />
<line x1="873" y1="426" x2="873" y2="413" stroke="rgb(70,30,0)" stroke-width="1" />
<line x1="873" y1="413" x2="877" y2="400" stroke="rgb(70,30,0)" stroke-width="1" />
<line x1="877" y1="400" x2="890" y2="397" stroke="rgb(70,30,0)" stroke-width="1" />
<line x1="890" y1="397" x2="899" y2="396" stroke="rgb(70,30,0)" stroke-width="1" />
<line x1="899" y1="396" x2="902" y2="385" stroke="rgb(70,30,0)" stroke-width="1" />
<line x1="902" y1="385" x2="911" y2="377" stroke="rgb(70,30,0)" stroke-width="1" />
<line x1="911" y1="377" x2="922" y2="378" stroke="rgb(70,30,0)" stroke-width="1" />
<line x1="922" y1="378" x2="931" y2="383" stroke="rgb(70,30,0)" stroke-width="1" />
<line x1="931" y1="383" x2="935" y2="393" stroke="rgb(70,30,0)" stroke-width="1" />
<line x1="935" y1="393" x2="949" y2="390" stroke="rgb(70,30,0)" stroke-width="1" />
<line x1="949" y1="390" x2="958" y2="389" stroke="rgb(70,30,0)" stroke-width="1" />
<line x1="958" y1="389" x2="969" y2="391" stroke="rgb(70,30,0)" stroke-width="1" />
<line x1="969" y1="391" x2="978" y2="397" stroke="rgb(70,30,0)" stroke-width="1" />
<line x1="978" y1="397" x2="982" y2="411" stroke="rgb(70,30,0)" stroke-width="1" />
<line x1="982" y1="411" x2="978" y2="424" stroke="rgb(70,30,0)" stroke-width="1" />
<line x1="978" y1="424" x2="986" y2="434" stroke="rgb(70,30,0)" stroke-width="1" />
<line x1="986" y1="434" x2="989" y2="442" stroke="rgb(70,30,0)" stroke-width="1" />
<line x1="988" y1="451" x2="988" y2="451" stroke="rgb(70,30,0)" stroke-width="1" />
<line x1="989" y1="442" x2="988" y2="451" stroke="rgb(70,30,0)" stroke-width="1" />
<line x1="988" y1="451" x2="983" y2="459" stroke="rgb(70,30,0)" stroke-width="1" />
<line x1="983" y1="459" x2="972" y2="464" stroke="rgb(70,30,0)" stroke-width="1" />
<line x1="972" y1="464" x2="959" y2="468" stroke="rgb(70,30,0)" stroke-width="1" />
<circle cx="829" cy="345" r="11" fill="rgb(70,30,0)" />
<line x1="54" y1="514" x2="56" y2="504" stroke="rgb(70,30,0)" stroke-width="1" />
<line x1="58" y1="514" x2="60" y2="504" stroke="rgb(70,30,0)" stroke-width="1" />
<line x1="92" y1="504" x2="82" y2="504" stroke="rgb(70,30,0)" stroke-width="1" />
<line x1="82" y1="504" x2="74" y2="508" stroke="rgb(70,30,0)" stroke-width="1" />
<line x1="74" y1="508" x2="74" y2="523" stroke="rgb(70,30,0)" stroke-width="1" />
<line x1="74" y1="523" x2="78" y2="528" stroke="rgb(70,30,0)" stroke-width="1" />
<line x1="78" y1="528" x2="90" y2="528" stroke="rgb(70,30,0)" stroke-width="1" />
<line x1="103" y1="528" x2="98" y2="523" stroke="rgb(70,30,0)" stroke-width="1" />
<line x1="103" y1="528" x2="113" y2="527" stroke="rgb(70,30,0)" stroke-width="1" />
<line x1="98" y1="523" x2="98" y2="508" stroke="rgb(70,30,0)" stroke-width="1" />
<line x1="98" y1="508" x2="102" y2="504" stroke="rgb(70,30,0)" stroke-width="1" />
<line x1="102" y1="504" x2="112" y2="504" stroke="rgb(70,30,0)" stroke-width="1" />
<line x1="112" y1="504" x2="115" y2="508" stroke="rgb(70,30,0)" stroke-width="1" />
<line x1="115" y1="508" x2="115" y2="521" stroke="rgb(70,30,0)" stroke-width="1" />
<line x1="115" y1="521" x2="113" y2="527" stroke="rgb(70,30,0)" stroke-width="1" />
<line x1="122" y1="528" x2="122" y2="505" stroke="rgb(70,30,0)" stroke-width="1" />
<line x1="122" y1="505" x2="131" y2="511" stroke="rgb(70,30,0)" stroke-width="1" />
<line x1="131" y1="511" x2="139" y2="504" stroke="rgb(70,30,0)" stroke-width="1" />
<line x1="139" y1="504" x2="139" y2="527" stroke="rgb(70,30,0)" stroke-width="1" />
<line x1="146" y1="504" x2="157" y2="504" stroke="rgb(70,30,0)" stroke-width="1" />
<line x1="146" y1="504" x2="146" y2="515" stroke="rgb(70,30,0)" stroke-width="1" />
<line x1="155" y1="528" x2="146" y2="528" stroke="rgb(70,30,0)" stroke-width="1" />
<line x1="155" y1="528" x2="160" y2="525" stroke="rgb(70,30,0)" stroke-width="1" />
<line x1="146" y1="528" x2="146" y2="515" stroke="rgb(70,30,0)" stroke-width="1" />
<line x1="157" y1="504" x2="163" y2="509" stroke="rgb(70,30,0)" stroke-width="1" />
<line x1="163" y1="509" x2="162" y2="514" stroke="rgb(70,30,0)" stroke-width="1" />
<line x1="162" y1="514" x2="155" y2="515" stroke="rgb(70,30,0)" stroke-width="1" />
<line x1="155" y1="515" x2="146" y2="515" stroke="rgb(70,30,0)" stroke-width="1" />
<line x1="155" y1="515" x2="161" y2="520" stroke="rgb(70,30,0)" stroke-width="1" />
<line x1="161" y1="520" x2="160" y2="525" stroke="rgb(70,30,0)" stroke-width="1" />
<line x1="170" y1="505" x2="177" y2="505" stroke="rgb(70,30,0)" stroke-width="1" />
<line x1="184" y1="504" x2="177" y2="505" stroke="rgb(70,30,0)" stroke-width="1" />
<line x1="170" y1="528" x2="177" y2="528" stroke="rgb(70,30,0)" stroke-width="1" />
<line x1="187" y1="527" x2="177" y2="528" stroke="rgb(70,30,0)" stroke-width="1" />
<line x1="177" y1="528" x2="177" y2="505" stroke="rgb(70,30,0)" stroke-width="1" />
<line x1="218" y1="504" x2="217" y2="525" stroke="rgb(70,30,0)" stroke-width="1" />
<line x1="217" y1="525" x2="221" y2="528" stroke="rgb(70,30,0)" stroke-width="1" />
<line x1="221" y1="528" x2="235" y2="528" stroke="rgb(70,30,0)" stroke-width="1" />
<line x1="246" y1="528" x2="241" y2="523" stroke="rgb(70,30,0)" stroke-width="1" />
<line x1="246" y1="528" x2="256" y2="527" stroke="rgb(70,30,0)" stroke-width="1" />
<line x1="241" y1="523" x2="241" y2="508" stroke="rgb(70,30,0)" stroke-width="1" />
<line x1="241" y1="508" x2="245" y2="504" stroke="rgb(70,30,0)" stroke-width="1" />
<line x1="245" y1="504" x2="255" y2="504" stroke="rgb(70,30,0)" stroke-width="1" />
<line x1="255" y1="504" x2="258" y2="508" stroke="rgb(70,30,0)" stroke-width="1" />
<line x1="258" y1="508" x2="258" y2="521" stroke="rgb(70,30,0)" stroke-width="1" />
<line x1="258" y1="521" x2="256" y2="527" stroke="rgb(70,30,0)" stroke-width="1" />
<line x1="280" y1="509" x2="278" y2="504" stroke="rgb(70,30,0)" stroke-width="1" />
<line x1="278" y1="504" x2="269" y2="504" stroke="rgb(70,30,0)" stroke-width="1" />
<line x1="269" y1="504" x2="265" y2="509" stroke="rgb(70,30,0)" stroke-width="1" />
<line x1="265" y1="509" x2="266" y2="525" stroke="rgb(70,30,0)" stroke-width="1" />
<line x1="266" y1="525" x2="270" y2="528" stroke="rgb(70,30,0)" stroke-width="1" />
<line x1="270" y1="528" x2="279" y2="528" stroke="rgb(70,30,0)" stroke-width="1" />
<line x1="279" y1="528" x2="282" y2="523" stroke="rgb(70,30,0)" stroke-width="1" />
<line x1="282" y1="523" x2="278" y2="516" stroke="rgb(70,30,0)" stroke-width="1" />
<line x1="278" y1="516" x2="270" y2="516" stroke="rgb(70,30,0)" stroke-width="1" />
<line x1="289" y1="505" x2="297" y2="505" stroke="rgb(70,30,0)" stroke-width="1" />
<line x1="303" y1="504" x2="297" y2="505" stroke="rgb(70,30,0)" stroke-width="1" />
<line x1="289" y1="528" x2="297" y2="528" stroke="rgb(70,30,0)" stroke-width="1" />
<line x1="306" y1="527" x2="297" y2="528" stroke="rgb(70,30,0)" stroke-width="1" />
<line x1="297" y1="528" x2="297" y2="505" stroke="rgb(70,30,0)" stroke-width="1" />
<line x1="330" y1="504" x2="320" y2="504" stroke="rgb(70,30,0)" stroke-width="1" />
<line x1="320" y1="504" x2="313" y2="508" stroke="rgb(70,30,0)" stroke-width="1" />
<line x1="313" y1="508" x2="313" y2="523" stroke="rgb(70,30,0)" stroke-width="1" />
<line x1="313" y1="523" x2="317" y2="528" stroke="rgb(70,30,0)" stroke-width="1" />
<line x1="317" y1="528" x2="328" y2="528" stroke="rgb(70,30,0)" stroke-width="1" />
<line x1="340" y1="514" x2="342" y2="504" stroke="rgb(70,30,0)" stroke-width="1" />
<line x1="344" y1="514" x2="346" y2="504" stroke="rgb(70,30,0)" stroke-width="1" />
<line x1="483" y1="484" x2="547" y2="484" stroke="rgb(0,30,0)" stroke-width="1" />
<line x1="380" y1="437" x2="555" y2="441" stroke="rgb(0,30,0)" stroke-width="1" />
<line x1="829" y1="437" x2="757" y2="437" stroke="rgb(0,30,0)" stroke-width="1" />
<line x1="555" y1="441" x2="599" y2="441" stroke="rgb(0,30,0)" stroke-width="1" />
<line x1="555" y1="441" x2="555" y2="349" stroke="rgb(0,30,0)" stroke-width="1" />
<line x1="547" y1="484" x2="599" y2="484" stroke="rgb(0,30,0)" stroke-width="1" />
<line x1="547" y1="484" x2="547" y2="560" stroke="rgb(0,30,0)" stroke-width="1" />
<line x1="829" y1="437" x2="877" y2="437" stroke="rgb(0,30,0)" stroke-width="1" />
<line x1="829" y1="345" x2="829" y2="437" stroke="rgb(0,30,0)" stroke-width="1" />
<line x1="1063" y1="652" x2="1067" y2="79" stroke="rgb(0,30,0)" stroke-width="1" />
<line x1="1067" y1="79" x2="17" y2="79" stroke="rgb(0,30,0)" stroke-width="1" />
<line x1="17" y1="79" x2="11" y2="667" stroke="rgb(0,30,0)" stroke-width="1" />
<line x1="11" y1="667" x2="1063" y2="652" stroke="rgb(0,30,0)" stroke-width="1" />
<line x1="191" y1="417" x2="181" y2="417" stroke="rgb(0,30,0)" stroke-width="1" />
<line x1="181" y1="417" x2="174" y2="420" stroke="rgb(0,30,0)" stroke-width="1" />
<line x1="174" y1="420" x2="174" y2="436" stroke="rgb(0,30,0)" stroke-width="1" />
<line x1="174" y1="436" x2="178" y2="441" stroke="rgb(0,30,0)" stroke-width="1" />
<line x1="178" y1="441" x2="189" y2="441" stroke="rgb(0,30,0)" stroke-width="1" />
<line x1="199" y1="417" x2="198" y2="437" stroke="rgb(0,30,0)" stroke-width="1" />
<line x1="198" y1="437" x2="201" y2="441" stroke="rgb(0,30,0)" stroke-width="1" />
<line x1="201" y1="441" x2="215" y2="441" stroke="rgb(0,30,0)" stroke-width="1" />
<line x1="222" y1="418" x2="223" y2="429" stroke="rgb(0,30,0)" stroke-width="1" />
<line x1="221" y1="441" x2="223" y2="429" stroke="rgb(0,30,0)" stroke-width="1" />
<line x1="239" y1="417" x2="229" y2="426" stroke="rgb(0,30,0)" stroke-width="1" />
<line x1="223" y1="429" x2="229" y2="426" stroke="rgb(0,30,0)" stroke-width="1" />
<line x1="229" y1="426" x2="238" y2="440" stroke="rgb(0,30,0)" stroke-width="1" />
<line x1="562" y1="296" x2="563" y2="290" stroke="rgb(0,30,0)" stroke-width="1" />
<line x1="563" y1="290" x2="560" y2="285" stroke="rgb(0,30,0)" stroke-width="1" />
<line x1="553" y1="285" x2="545" y2="285" stroke="rgb(0,30,0)" stroke-width="1" />
<line x1="545" y1="285" x2="539" y2="288" stroke="rgb(0,30,0)" stroke-width="1" />
<line x1="539" y1="288" x2="539" y2="295" stroke="rgb(0,30,0)" stroke-width="1" />
<line x1="539" y1="295" x2="543" y2="300" stroke="rgb(0,30,0)" stroke-width="1" />
<line x1="543" y1="300" x2="551" y2="302" stroke="rgb(0,30,0)" stroke-width="1" />
<line x1="551" y1="302" x2="557" y2="300" stroke="rgb(0,30,0)" stroke-width="1" />
<line x1="557" y1="300" x2="562" y2="296" stroke="rgb(0,30,0)" stroke-width="1" />
<line x1="556" y1="290" x2="557" y2="287" stroke="rgb(0,30,0)" stroke-width="1" />
<line x1="557" y1="287" x2="553" y2="285" stroke="rgb(0,30,0)" stroke-width="1" />
<line x1="545" y1="288" x2="556" y2="290" stroke="rgb(0,30,0)" stroke-width="1" />
<line x1="556" y1="290" x2="549" y2="290" stroke="rgb(0,30,0)" stroke-width="1" />
<line x1="549" y1="290" x2="546" y2="293" stroke="rgb(0,30,0)" stroke-width="1" />
<line x1="546" y1="293" x2="549" y2="298" stroke="rgb(0,30,0)" stroke-width="1" />
<line x1="549" y1="298" x2="553" y2="298" stroke="rgb(0,30,0)" stroke-width="1" />
<line x1="553" y1="298" x2="557" y2="295" stroke="rgb(0,30,0)" stroke-width="1" />
<line x1="557" y1="295" x2="556" y2="290" stroke="rgb(0,30,0)" stroke-width="1" />
<line x1="563" y1="277" x2="552" y2="277" stroke="rgb(0,30,0)" stroke-width="1" />
<line x1="544" y1="278" x2="539" y2="274" stroke="rgb(0,30,0)" stroke-width="1" />
<line x1="544" y1="278" x2="552" y2="277" stroke="rgb(0,30,0)" stroke-width="1" />
<line x1="539" y1="274" x2="539" y2="264" stroke="rgb(0,30,0)" stroke-width="1" />
<line x1="539" y1="264" x2="544" y2="261" stroke="rgb(0,30,0)" stroke-width="1" />
<line x1="544" y1="261" x2="550" y2="261" stroke="rgb(0,30,0)" stroke-width="1" />
<line x1="550" y1="261" x2="552" y2="268" stroke="rgb(0,30,0)" stroke-width="1" />
<line x1="552" y1="268" x2="552" y2="277" stroke="rgb(0,30,0)" stroke-width="1" />
<line x1="563" y1="249" x2="558" y2="254" stroke="rgb(0,30,0)" stroke-width="1" />
<line x1="563" y1="249" x2="562" y2="240" stroke="rgb(0,30,0)" stroke-width="1" />
<line x1="558" y1="254" x2="543" y2="254" stroke="rgb(0,30,0)" stroke-width="1" />
<line x1="543" y1="254" x2="539" y2="250" stroke="rgb(0,30,0)" stroke-width="1" />
<line x1="539" y1="250" x2="539" y2="241" stroke="rgb(0,30,0)" stroke-width="1" />
<line x1="539" y1="241" x2="543" y2="237" stroke="rgb(0,30,0)" stroke-width="1" />
<line x1="543" y1="237" x2="556" y2="237" stroke="rgb(0,30,0)" stroke-width="1" />
<line x1="556" y1="237" x2="562" y2="240" stroke="rgb(0,30,0)" stroke-width="1" />
<line x1="544" y1="213" x2="539" y2="216" stroke="rgb(0,30,0)" stroke-width="1" />
<line x1="539" y1="216" x2="539" y2="227" stroke="rgb(0,30,0)" stroke-width="1" />
<line x1="539" y1="227" x2="544" y2="230" stroke="rgb(0,30,0)" stroke-width="1" />
<line x1="544" y1="230" x2="549" y2="229" stroke="rgb(0,30,0)" stroke-width="1" />
<line x1="552" y1="217" x2="555" y2="214" stroke="rgb(0,30,0)" stroke-width="1" />
<line x1="552" y1="217" x2="549" y2="229" stroke="rgb(0,30,0)" stroke-width="1" />
<line x1="555" y1="214" x2="560" y2="214" stroke="rgb(0,30,0)" stroke-width="1" />
<line x1="560" y1="214" x2="563" y2="218" stroke="rgb(0,30,0)" stroke-width="1" />
<line x1="563" y1="218" x2="560" y2="230" stroke="rgb(0,30,0)" stroke-width="1" />
<line x1="543" y1="189" x2="540" y2="194" stroke="rgb(0,30,0)" stroke-width="1" />
<line x1="540" y1="194" x2="539" y2="202" stroke="rgb(0,30,0)" stroke-width="1" />
<line x1="543" y1="206" x2="551" y2="206" stroke="rgb(0,30,0)" stroke-width="1" />
<line x1="543" y1="206" x2="539" y2="202" stroke="rgb(0,30,0)" stroke-width="1" />
<line x1="551" y1="206" x2="551" y2="198" stroke="rgb(0,30,0)" stroke-width="1" />
<line x1="551" y1="206" x2="560" y2="206" stroke="rgb(0,30,0)" stroke-width="1" />
<line x1="560" y1="206" x2="563" y2="201" stroke="rgb(0,30,0)" stroke-width="1" />
<line x1="563" y1="201" x2="563" y2="191" stroke="rgb(0,30,0)" stroke-width="1" />
<line x1="563" y1="191" x2="558" y2="189" stroke="rgb(0,30,0)" stroke-width="1" />
<line x1="539" y1="182" x2="539" y2="177" stroke="rgb(0,30,0)" stroke-width="1" />
<line x1="539" y1="170" x2="543" y2="165" stroke="rgb(0,30,0)" stroke-width="1" />
<line x1="539" y1="170" x2="539" y2="177" stroke="rgb(0,30,0)" stroke-width="1" />
<line x1="543" y1="165" x2="559" y2="166" stroke="rgb(0,30,0)" stroke-width="1" />
<line x1="559" y1="166" x2="563" y2="172" stroke="rgb(0,30,0)" stroke-width="1" />
<line x1="563" y1="172" x2="563" y2="178" stroke="rgb(0,30,0)" stroke-width="1" />
<line x1="563" y1="183" x2="563" y2="178" stroke="rgb(0,30,0)" stroke-width="1" />
<line x1="539" y1="177" x2="563" y2="178" stroke="rgb(0,30,0)" stroke-width="1" />
<line x1="544" y1="144" x2="539" y2="145" stroke="rgb(0,30,0)" stroke-width="1" />
<line x1="539" y1="145" x2="539" y2="155" stroke="rgb(0,30,0)" stroke-width="1" />
<line x1="539" y1="155" x2="544" y2="159" stroke="rgb(0,30,0)" stroke-width="1" />
<line x1="544" y1="159" x2="559" y2="158" stroke="rgb(0,30,0)" stroke-width="1" />
<line x1="559" y1="158" x2="563" y2="154" stroke="rgb(0,30,0)" stroke-width="1" />
<line x1="563" y1="154" x2="563" y2="145" stroke="rgb(0,30,0)" stroke-width="1" />
<line x1="563" y1="145" x2="558" y2="142" stroke="rgb(0,30,0)" stroke-width="1" />
<line x1="558" y1="142" x2="551" y2="145" stroke="rgb(0,30,0)" stroke-width="1" />
<line x1="551" y1="145" x2="551" y2="154" stroke="rgb(0,30,0)" stroke-width="1" />
<line x1="543" y1="118" x2="540" y2="123" stroke="rgb(0,30,0)" stroke-width="1" />
<line x1="540" y1="123" x2="539" y2="130" stroke="rgb(0,30,0)" stroke-width="1" />
<line x1="543" y1="135" x2="551" y2="134" stroke="rgb(0,30,0)" stroke-width="1" />
<line x1="543" y1="135" x2="539" y2="130" stroke="rgb(0,30,0)" stroke-width="1" />
<line x1="551" y1="134" x2="551" y2="126" stroke="rgb(0,30,0)" stroke-width="1" />
<line x1="551" y1="134" x2="560" y2="135" stroke="rgb(0,30,0)" stroke-width="1" />
<line x1="560" y1="135" x2="563" y2="129" stroke="rgb(0,30,0)" stroke-width="1" />
<line x1="563" y1="129" x2="563" y2="120" stroke="rgb(0,30,0)" stroke-width="1" />
<line x1="563" y1="120" x2="558" y2="118" stroke="rgb(0,30,0)" stroke-width="1" />
<line x1="524" y1="592" x2="529" y2="592" stroke="rgb(0,30,0)" stroke-width="1" />
<line x1="536" y1="592" x2="540" y2="595" stroke="rgb(0,30,0)" stroke-width="1" />
<line x1="536" y1="592" x2="529" y2="592" stroke="rgb(0,30,0)" stroke-width="1" />
<line x1="540" y1="595" x2="539" y2="612" stroke="rgb(0,30,0)" stroke-width="1" />
<line x1="539" y1="612" x2="534" y2="615" stroke="rgb(0,30,0)" stroke-width="1" />
<line x1="534" y1="615" x2="528" y2="615" stroke="rgb(0,30,0)" stroke-width="1" />
<line x1="523" y1="615" x2="528" y2="615" stroke="rgb(0,30,0)" stroke-width="1" />
<line x1="529" y1="592" x2="528" y2="615" stroke="rgb(0,30,0)" stroke-width="1" />
<line x1="817" y1="309" x2="826" y2="309" stroke="rgb(0,30,0)" stroke-width="1" />
<line x1="826" y1="309" x2="829" y2="304" stroke="rgb(0,30,0)" stroke-width="1" />
<line x1="817" y1="309" x2="813" y2="303" stroke="rgb(0,30,0)" stroke-width="1" />
<line x1="813" y1="303" x2="813" y2="293" stroke="rgb(0,30,0)" stroke-width="1" />
<line x1="813" y1="293" x2="817" y2="286" stroke="rgb(0,30,0)" stroke-width="1" />
<line x1="817" y1="286" x2="825" y2="286" stroke="rgb(0,30,0)" stroke-width="1" />
<line x1="825" y1="286" x2="829" y2="292" stroke="rgb(0,30,0)" stroke-width="1" />
<line x1="829" y1="292" x2="829" y2="304" stroke="rgb(0,30,0)" stroke-width="1" />
<line x1="825" y1="303" x2="830" y2="310" stroke="rgb(0,30,0)" stroke-width="1" />
</svg>
