<?xml version="1.0" encoding="UTF-8" standalone="no"?>
<!DOCTYPE svg PUBLIC "-//W3C//DTD SVG 1.1//EN"
 "http://www.w3.org/Graphics/SVG/1.1/DTD/svg11.dtd">
<!-- Generated by graphviz version 10.0.1 (20240210.2158)
 -->
<!-- Title: x16x4 Pages: 1 -->
<svg width="1275pt" height="332pt"
 viewBox="0.00 0.00 1274.69 332.00" xmlns="http://www.w3.org/2000/svg" xmlns:xlink="http://www.w3.org/1999/xlink">
<g id="graph0" class="graph" transform="scale(1 1) rotate(0) translate(4 328)">
<title>x16x4</title>
<polygon fill="white" stroke="none" points="-4,4 -4,-328 1270.69,-328 1270.69,4 -4,4"/>
<!-- mst0 -->
<g id="node1" class="node">
<title>mst0</title>
<ellipse fill="none" stroke="black" cx="1006.34" cy="-306" rx="29.34" ry="18"/>
<text text-anchor="middle" x="1006.34" y="-300.95" font-family="Times,serif" font-size="14.00">mst0</text>
</g>
<!-- merger0 -->
<g id="node2" class="node">
<title>merger0</title>
<ellipse fill="none" stroke="black" cx="1083.34" cy="-234" rx="42.14" ry="18"/>
<text text-anchor="middle" x="1083.34" y="-228.95" font-family="Times,serif" font-size="14.00">merger0</text>
</g>
<!-- mst0&#45;&gt;merger0 -->
<g id="edge1" class="edge">
<title>mst0&#45;&gt;merger0</title>
<path fill="none" stroke="black" d="M1022.3,-290.5C1032.48,-281.24 1045.9,-269.04 1057.57,-258.43"/>
<polygon fill="black" stroke="black" points="1059.91,-261.04 1064.95,-251.72 1055.2,-255.86 1059.91,-261.04"/>
</g>
<!-- merger4 -->
<g id="node21" class="node">
<title>merger4</title>
<ellipse fill="none" stroke="black" cx="624.34" cy="-162" rx="42.14" ry="18"/>
<text text-anchor="middle" x="624.34" y="-156.95" font-family="Times,serif" font-size="14.00">merger4</text>
</g>
<!-- merger0&#45;&gt;merger4 -->
<g id="edge17" class="edge">
<title>merger0&#45;&gt;merger4</title>
<path fill="none" stroke="black" d="M1044.21,-227.03C961.15,-214.37 767.31,-184.8 674.98,-170.72"/>
<polygon fill="black" stroke="black" points="675.61,-167.28 665.2,-169.23 674.56,-174.2 675.61,-167.28"/>
</g>
<!-- mst1 -->
<g id="node3" class="node">
<title>mst1</title>
<ellipse fill="none" stroke="black" cx="1083.34" cy="-306" rx="29.34" ry="18"/>
<text text-anchor="middle" x="1083.34" y="-300.95" font-family="Times,serif" font-size="14.00">mst1</text>
</g>
<!-- mst1&#45;&gt;merger0 -->
<g id="edge2" class="edge">
<title>mst1&#45;&gt;merger0</title>
<path fill="none" stroke="black" d="M1083.34,-287.7C1083.34,-280.41 1083.34,-271.73 1083.34,-263.54"/>
<polygon fill="black" stroke="black" points="1086.84,-263.62 1083.34,-253.62 1079.84,-263.62 1086.84,-263.62"/>
</g>
<!-- mst2 -->
<g id="node4" class="node">
<title>mst2</title>
<ellipse fill="none" stroke="black" cx="1160.34" cy="-306" rx="29.34" ry="18"/>
<text text-anchor="middle" x="1160.34" y="-300.95" font-family="Times,serif" font-size="14.00">mst2</text>
</g>
<!-- mst2&#45;&gt;merger0 -->
<g id="edge3" class="edge">
<title>mst2&#45;&gt;merger0</title>
<path fill="none" stroke="black" d="M1144.39,-290.5C1134.21,-281.24 1120.78,-269.04 1109.11,-258.43"/>
<polygon fill="black" stroke="black" points="1111.49,-255.86 1101.74,-251.72 1106.78,-261.04 1111.49,-255.86"/>
</g>
<!-- mst3 -->
<g id="node5" class="node">
<title>mst3</title>
<ellipse fill="none" stroke="black" cx="1237.34" cy="-306" rx="29.34" ry="18"/>
<text text-anchor="middle" x="1237.34" y="-300.95" font-family="Times,serif" font-size="14.00">mst3</text>
</g>
<!-- mst3&#45;&gt;merger0 -->
<g id="edge4" class="edge">
<title>mst3&#45;&gt;merger0</title>
<path fill="none" stroke="black" d="M1214.29,-294.52C1189.85,-283.41 1150.85,-265.68 1121.75,-252.46"/>
<polygon fill="black" stroke="black" points="1123.46,-249.39 1112.91,-248.44 1120.56,-255.76 1123.46,-249.39"/>
</g>
<!-- mst4 -->
<g id="node6" class="node">
<title>mst4</title>
<ellipse fill="none" stroke="black" cx="29.34" cy="-306" rx="29.34" ry="18"/>
<text text-anchor="middle" x="29.34" y="-300.95" font-family="Times,serif" font-size="14.00">mst4</text>
</g>
<!-- merger1 -->
<g id="node7" class="node">
<title>merger1</title>
<ellipse fill="none" stroke="black" cx="183.34" cy="-234" rx="42.14" ry="18"/>
<text text-anchor="middle" x="183.34" y="-228.95" font-family="Times,serif" font-size="14.00">merger1</text>
</g>
<!-- mst4&#45;&gt;merger1 -->
<g id="edge5" class="edge">
<title>mst4&#45;&gt;merger1</title>
<path fill="none" stroke="black" d="M52.4,-294.52C76.84,-283.41 115.84,-265.68 144.93,-252.46"/>
<polygon fill="black" stroke="black" points="146.12,-255.76 153.78,-248.44 143.23,-249.39 146.12,-255.76"/>
</g>
<!-- merger1&#45;&gt;merger4 -->
<g id="edge18" class="edge">
<title>merger1&#45;&gt;merger4</title>
<path fill="none" stroke="black" d="M222.48,-226.79C302.65,-214.06 485.46,-185.04 574.19,-170.96"/>
<polygon fill="black" stroke="black" points="574.47,-174.46 583.8,-169.44 573.38,-167.55 574.47,-174.46"/>
</g>
<!-- mst5 -->
<g id="node8" class="node">
<title>mst5</title>
<ellipse fill="none" stroke="black" cx="106.34" cy="-306" rx="29.34" ry="18"/>
<text text-anchor="middle" x="106.34" y="-300.95" font-family="Times,serif" font-size="14.00">mst5</text>
</g>
<!-- mst5&#45;&gt;merger1 -->
<g id="edge6" class="edge">
<title>mst5&#45;&gt;merger1</title>
<path fill="none" stroke="black" d="M122.3,-290.5C132.48,-281.24 145.9,-269.04 157.57,-258.43"/>
<polygon fill="black" stroke="black" points="159.91,-261.04 164.95,-251.72 155.2,-255.86 159.91,-261.04"/>
</g>
<!-- mst6 -->
<g id="node9" class="node">
<title>mst6</title>
<ellipse fill="none" stroke="black" cx="183.34" cy="-306" rx="29.34" ry="18"/>
<text text-anchor="middle" x="183.34" y="-300.95" font-family="Times,serif" font-size="14.00">mst6</text>
</g>
<!-- mst6&#45;&gt;merger1 -->
<g id="edge7" class="edge">
<title>mst6&#45;&gt;merger1</title>
<path fill="none" stroke="black" d="M183.34,-287.7C183.34,-280.41 183.34,-271.73 183.34,-263.54"/>
<polygon fill="black" stroke="black" points="186.84,-263.62 183.34,-253.62 179.84,-263.62 186.84,-263.62"/>
</g>
<!-- mst7 -->
<g id="node10" class="node">
<title>mst7</title>
<ellipse fill="none" stroke="black" cx="260.34" cy="-306" rx="29.34" ry="18"/>
<text text-anchor="middle" x="260.34" y="-300.95" font-family="Times,serif" font-size="14.00">mst7</text>
</g>
<!-- mst7&#45;&gt;merger1 -->
<g id="edge8" class="edge">
<title>mst7&#45;&gt;merger1</title>
<path fill="none" stroke="black" d="M244.39,-290.5C234.21,-281.24 220.78,-269.04 209.11,-258.43"/>
<polygon fill="black" stroke="black" points="211.49,-255.86 201.74,-251.72 206.78,-261.04 211.49,-255.86"/>
</g>
<!-- mst8 -->
<g id="node11" class="node">
<title>mst8</title>
<ellipse fill="none" stroke="black" cx="337.34" cy="-306" rx="29.34" ry="18"/>
<text text-anchor="middle" x="337.34" y="-300.95" font-family="Times,serif" font-size="14.00">mst8</text>
</g>
<!-- merger2 -->
<g id="node12" class="node">
<title>merger2</title>
<ellipse fill="none" stroke="black" cx="495.34" cy="-234" rx="42.14" ry="18"/>
<text text-anchor="middle" x="495.34" y="-228.95" font-family="Times,serif" font-size="14.00">merger2</text>
</g>
<!-- mst8&#45;&gt;merger2 -->
<g id="edge9" class="edge">
<title>mst8&#45;&gt;merger2</title>
<path fill="none" stroke="black" d="M360.66,-294.67C385.92,-283.48 426.64,-265.44 456.7,-252.12"/>
<polygon fill="black" stroke="black" points="457.74,-255.49 465.46,-248.24 454.9,-249.09 457.74,-255.49"/>
</g>
<!-- merger2&#45;&gt;merger4 -->
<g id="edge19" class="edge">
<title>merger2&#45;&gt;merger4</title>
<path fill="none" stroke="black" d="M520.83,-219.17C540.27,-208.62 567.27,-193.97 588.82,-182.27"/>
<polygon fill="black" stroke="black" points="590.46,-185.37 597.58,-177.52 587.12,-179.22 590.46,-185.37"/>
</g>
<!-- mst9 -->
<g id="node13" class="node">
<title>mst9</title>
<ellipse fill="none" stroke="black" cx="414.34" cy="-306" rx="29.34" ry="18"/>
<text text-anchor="middle" x="414.34" y="-300.95" font-family="Times,serif" font-size="14.00">mst9</text>
</g>
<!-- mst9&#45;&gt;merger2 -->
<g id="edge10" class="edge">
<title>mst9&#45;&gt;merger2</title>
<path fill="none" stroke="black" d="M430.74,-290.83C441.6,-281.45 456.1,-268.92 468.61,-258.11"/>
<polygon fill="black" stroke="black" points="470.86,-260.78 476.14,-251.6 466.29,-255.49 470.86,-260.78"/>
</g>
<!-- mst10 -->
<g id="node14" class="node">
<title>mst10</title>
<ellipse fill="none" stroke="black" cx="495.34" cy="-306" rx="33.95" ry="18"/>
<text text-anchor="middle" x="495.34" y="-300.95" font-family="Times,serif" font-size="14.00">mst10</text>
</g>
<!-- mst10&#45;&gt;merger2 -->
<g id="edge11" class="edge">
<title>mst10&#45;&gt;merger2</title>
<path fill="none" stroke="black" d="M495.34,-287.7C495.34,-280.41 495.34,-271.73 495.34,-263.54"/>
<polygon fill="black" stroke="black" points="498.84,-263.62 495.34,-253.62 491.84,-263.62 498.84,-263.62"/>
</g>
<!-- mst11 -->
<g id="node15" class="node">
<title>mst11</title>
<ellipse fill="none" stroke="black" cx="581.34" cy="-306" rx="33.95" ry="18"/>
<text text-anchor="middle" x="581.34" y="-300.95" font-family="Times,serif" font-size="14.00">mst11</text>
</g>
<!-- mst11&#45;&gt;merger2 -->
<g id="edge12" class="edge">
<title>mst11&#45;&gt;merger2</title>
<path fill="none" stroke="black" d="M563.52,-290.5C551.85,-281 536.36,-268.38 523.09,-257.58"/>
<polygon fill="black" stroke="black" points="525.47,-255.01 515.51,-251.41 521.05,-260.44 525.47,-255.01"/>
</g>
<!-- mst12 -->
<g id="node16" class="node">
<title>mst12</title>
<ellipse fill="none" stroke="black" cx="667.34" cy="-306" rx="33.95" ry="18"/>
<text text-anchor="middle" x="667.34" y="-300.95" font-family="Times,serif" font-size="14.00">mst12</text>
</g>
<!-- merger3 -->
<g id="node17" class="node">
<title>merger3</title>
<ellipse fill="none" stroke="black" cx="753.34" cy="-234" rx="42.14" ry="18"/>
<text text-anchor="middle" x="753.34" y="-228.95" font-family="Times,serif" font-size="14.00">merger3</text>
</g>
<!-- mst12&#45;&gt;merger3 -->
<g id="edge13" class="edge">
<title>mst12&#45;&gt;merger3</title>
<path fill="none" stroke="black" d="M685.16,-290.5C696.84,-281 712.33,-268.38 725.6,-257.58"/>
<polygon fill="black" stroke="black" points="727.63,-260.44 733.18,-251.41 723.22,-255.01 727.63,-260.44"/>
</g>
<!-- merger3&#45;&gt;merger4 -->
<g id="edge20" class="edge">
<title>merger3&#45;&gt;merger4</title>
<path fill="none" stroke="black" d="M727.86,-219.17C708.42,-208.62 681.42,-193.97 659.86,-182.27"/>
<polygon fill="black" stroke="black" points="661.57,-179.22 651.11,-177.52 658.23,-185.37 661.57,-179.22"/>
</g>
<!-- mst13 -->
<g id="node18" class="node">
<title>mst13</title>
<ellipse fill="none" stroke="black" cx="753.34" cy="-306" rx="33.95" ry="18"/>
<text text-anchor="middle" x="753.34" y="-300.95" font-family="Times,serif" font-size="14.00">mst13</text>
</g>
<!-- mst13&#45;&gt;merger3 -->
<g id="edge14" class="edge">
<title>mst13&#45;&gt;merger3</title>
<path fill="none" stroke="black" d="M753.34,-287.7C753.34,-280.41 753.34,-271.73 753.34,-263.54"/>
<polygon fill="black" stroke="black" points="756.84,-263.62 753.34,-253.62 749.84,-263.62 756.84,-263.62"/>
</g>
<!-- mst14 -->
<g id="node19" class="node">
<title>mst14</title>
<ellipse fill="none" stroke="black" cx="839.34" cy="-306" rx="33.95" ry="18"/>
<text text-anchor="middle" x="839.34" y="-300.95" font-family="Times,serif" font-size="14.00">mst14</text>
</g>
<!-- mst14&#45;&gt;merger3 -->
<g id="edge15" class="edge">
<title>mst14&#45;&gt;merger3</title>
<path fill="none" stroke="black" d="M821.52,-290.5C809.85,-281 794.36,-268.38 781.09,-257.58"/>
<polygon fill="black" stroke="black" points="783.47,-255.01 773.51,-251.41 779.05,-260.44 783.47,-255.01"/>
</g>
<!-- mst15 -->
<g id="node20" class="node">
<title>mst15</title>
<ellipse fill="none" stroke="black" cx="925.34" cy="-306" rx="33.95" ry="18"/>
<text text-anchor="middle" x="925.34" y="-300.95" font-family="Times,serif" font-size="14.00">mst15</text>
</g>
<!-- mst15&#45;&gt;merger3 -->
<g id="edge16" class="edge">
<title>mst15&#45;&gt;merger3</title>
<path fill="none" stroke="black" d="M898.85,-294.22C870.74,-282.78 826,-264.57 793.54,-251.36"/>
<polygon fill="black" stroke="black" points="795.03,-248.19 784.45,-247.66 792.39,-254.67 795.03,-248.19"/>
</g>
<!-- splitter0 -->
<g id="node22" class="node">
<title>splitter0</title>
<ellipse fill="none" stroke="black" cx="624.34" cy="-90" rx="41.12" ry="18"/>
<text text-anchor="middle" x="624.34" y="-84.95" font-family="Times,serif" font-size="14.00">splitter0</text>
</g>
<!-- merger4&#45;&gt;splitter0 -->
<g id="edge21" class="edge">
<title>merger4&#45;&gt;splitter0</title>
<path fill="none" stroke="black" d="M624.34,-143.7C624.34,-136.41 624.34,-127.73 624.34,-119.54"/>
<polygon fill="black" stroke="black" points="627.84,-119.62 624.34,-109.62 620.84,-119.62 627.84,-119.62"/>
</g>
<!-- slv0 -->
<g id="node23" class="node">
<title>slv0</title>
<ellipse fill="none" stroke="black" cx="516.34" cy="-18" rx="27" ry="18"/>
<text text-anchor="middle" x="516.34" y="-12.95" font-family="Times,serif" font-size="14.00">slv0</text>
</g>
<!-- splitter0&#45;&gt;slv0 -->
<g id="edge22" class="edge">
<title>splitter0&#45;&gt;slv0</title>
<path fill="none" stroke="black" d="M601.97,-74.5C585.36,-63.73 562.6,-48.98 544.72,-37.39"/>
<polygon fill="black" stroke="black" points="546.66,-34.48 536.36,-31.98 542.85,-40.35 546.66,-34.48"/>
</g>
<!-- slv1 -->
<g id="node24" class="node">
<title>slv1</title>
<ellipse fill="none" stroke="black" cx="588.34" cy="-18" rx="27" ry="18"/>
<text text-anchor="middle" x="588.34" y="-12.95" font-family="Times,serif" font-size="14.00">slv1</text>
</g>
<!-- splitter0&#45;&gt;slv1 -->
<g id="edge23" class="edge">
<title>splitter0&#45;&gt;slv1</title>
<path fill="none" stroke="black" d="M615.63,-72.05C611.5,-64.03 606.48,-54.26 601.87,-45.3"/>
<polygon fill="black" stroke="black" points="605.11,-43.95 597.42,-36.65 598.88,-47.15 605.11,-43.95"/>
</g>
<!-- slv2 -->
<g id="node25" class="node">
<title>slv2</title>
<ellipse fill="none" stroke="black" cx="660.34" cy="-18" rx="27" ry="18"/>
<text text-anchor="middle" x="660.34" y="-12.95" font-family="Times,serif" font-size="14.00">slv2</text>
</g>
<!-- splitter0&#45;&gt;slv2 -->
<g id="edge24" class="edge">
<title>splitter0&#45;&gt;slv2</title>
<path fill="none" stroke="black" d="M633.06,-72.05C637.19,-64.03 642.21,-54.26 646.82,-45.3"/>
<polygon fill="black" stroke="black" points="649.8,-47.15 651.26,-36.65 643.58,-43.95 649.8,-47.15"/>
</g>
<!-- slv3 -->
<g id="node26" class="node">
<title>slv3</title>
<ellipse fill="none" stroke="black" cx="732.34" cy="-18" rx="27" ry="18"/>
<text text-anchor="middle" x="732.34" y="-12.95" font-family="Times,serif" font-size="14.00">slv3</text>
</g>
<!-- splitter0&#45;&gt;slv3 -->
<g id="edge25" class="edge">
<title>splitter0&#45;&gt;slv3</title>
<path fill="none" stroke="black" d="M646.72,-74.5C663.33,-63.73 686.09,-48.98 703.97,-37.39"/>
<polygon fill="black" stroke="black" points="705.84,-40.35 712.32,-31.98 702.03,-34.48 705.84,-40.35"/>
</g>
</g>
</svg>
