<?xml version="1.0" encoding="UTF-8" standalone="no"?>
<!DOCTYPE svg PUBLIC "-//W3C//DTD SVG 1.1//EN"
 "http://www.w3.org/Graphics/SVG/1.1/DTD/svg11.dtd">
<!-- Generated by graphviz version 2.46.1 (20210213.1702)
 -->
<!-- Title: x16x4 Pages: 1 -->
<svg width="1291pt" height="332pt"
 viewBox="0.00 0.00 1290.63 332.00" xmlns="http://www.w3.org/2000/svg" xmlns:xlink="http://www.w3.org/1999/xlink">
<g id="graph0" class="graph" transform="scale(1 1) rotate(0) translate(4 328)">
<title>x16x4</title>
<polygon fill="white" stroke="transparent" points="-4,4 -4,-328 1286.63,-328 1286.63,4 -4,4"/>
<!-- mst0 -->
<g id="node1" class="node">
<title>mst0</title>
<ellipse fill="none" stroke="black" cx="1018.82" cy="-306" rx="29.63" ry="18"/>
<text text-anchor="middle" x="1018.82" y="-301.8" font-family="Times,serif" font-size="14.00">mst0</text>
</g>
<!-- merger0 -->
<g id="node2" class="node">
<title>merger0</title>
<ellipse fill="none" stroke="black" cx="1096.82" cy="-234" rx="43.42" ry="18"/>
<text text-anchor="middle" x="1096.82" y="-229.8" font-family="Times,serif" font-size="14.00">merger0</text>
</g>
<!-- mst0&#45;&gt;merger0 -->
<g id="edge1" class="edge">
<title>mst0&#45;&gt;merger0</title>
<path fill="none" stroke="black" d="M1034.98,-290.5C1045.59,-280.97 1059.69,-268.32 1071.75,-257.5"/>
<polygon fill="black" stroke="black" points="1074.21,-259.99 1079.32,-250.7 1069.54,-254.78 1074.21,-259.99"/>
</g>
<!-- merger4 -->
<g id="node21" class="node">
<title>merger4</title>
<ellipse fill="none" stroke="black" cx="631.82" cy="-162" rx="43.42" ry="18"/>
<text text-anchor="middle" x="631.82" y="-157.8" font-family="Times,serif" font-size="14.00">merger4</text>
</g>
<!-- merger0&#45;&gt;merger4 -->
<g id="edge17" class="edge">
<title>merger0&#45;&gt;merger4</title>
<path fill="none" stroke="black" d="M1056.77,-226.97C972.05,-214.22 774.84,-184.53 681.93,-170.54"/>
<polygon fill="black" stroke="black" points="682.34,-167.07 671.93,-169.04 681.3,-173.99 682.34,-167.07"/>
</g>
<!-- mst1 -->
<g id="node3" class="node">
<title>mst1</title>
<ellipse fill="none" stroke="black" cx="1096.82" cy="-306" rx="29.63" ry="18"/>
<text text-anchor="middle" x="1096.82" y="-301.8" font-family="Times,serif" font-size="14.00">mst1</text>
</g>
<!-- mst1&#45;&gt;merger0 -->
<g id="edge2" class="edge">
<title>mst1&#45;&gt;merger0</title>
<path fill="none" stroke="black" d="M1096.82,-287.7C1096.82,-279.98 1096.82,-270.71 1096.82,-262.11"/>
<polygon fill="black" stroke="black" points="1100.32,-262.1 1096.82,-252.1 1093.32,-262.1 1100.32,-262.1"/>
</g>
<!-- mst2 -->
<g id="node4" class="node">
<title>mst2</title>
<ellipse fill="none" stroke="black" cx="1174.82" cy="-306" rx="29.63" ry="18"/>
<text text-anchor="middle" x="1174.82" y="-301.8" font-family="Times,serif" font-size="14.00">mst2</text>
</g>
<!-- mst2&#45;&gt;merger0 -->
<g id="edge3" class="edge">
<title>mst2&#45;&gt;merger0</title>
<path fill="none" stroke="black" d="M1158.65,-290.5C1148.04,-280.97 1133.94,-268.32 1121.88,-257.5"/>
<polygon fill="black" stroke="black" points="1124.09,-254.78 1114.31,-250.7 1119.42,-259.99 1124.09,-254.78"/>
</g>
<!-- mst3 -->
<g id="node5" class="node">
<title>mst3</title>
<ellipse fill="none" stroke="black" cx="1252.82" cy="-306" rx="29.63" ry="18"/>
<text text-anchor="middle" x="1252.82" y="-301.8" font-family="Times,serif" font-size="14.00">mst3</text>
</g>
<!-- mst3&#45;&gt;merger0 -->
<g id="edge4" class="edge">
<title>mst3&#45;&gt;merger0</title>
<path fill="none" stroke="black" d="M1229.46,-294.52C1204.3,-283.23 1163.91,-265.11 1134.3,-251.82"/>
<polygon fill="black" stroke="black" points="1135.65,-248.59 1125.1,-247.69 1132.79,-254.98 1135.65,-248.59"/>
</g>
<!-- mst4 -->
<g id="node6" class="node">
<title>mst4</title>
<ellipse fill="none" stroke="black" cx="29.82" cy="-306" rx="29.63" ry="18"/>
<text text-anchor="middle" x="29.82" y="-301.8" font-family="Times,serif" font-size="14.00">mst4</text>
</g>
<!-- merger1 -->
<g id="node7" class="node">
<title>merger1</title>
<ellipse fill="none" stroke="black" cx="185.82" cy="-234" rx="43.42" ry="18"/>
<text text-anchor="middle" x="185.82" y="-229.8" font-family="Times,serif" font-size="14.00">merger1</text>
</g>
<!-- mst4&#45;&gt;merger1 -->
<g id="edge5" class="edge">
<title>mst4&#45;&gt;merger1</title>
<path fill="none" stroke="black" d="M53.17,-294.52C78.33,-283.23 118.72,-265.11 148.34,-251.82"/>
<polygon fill="black" stroke="black" points="149.85,-254.98 157.54,-247.69 146.98,-248.59 149.85,-254.98"/>
</g>
<!-- merger1&#45;&gt;merger4 -->
<g id="edge18" class="edge">
<title>merger1&#45;&gt;merger4</title>
<path fill="none" stroke="black" d="M225.79,-226.73C307.34,-213.93 492.7,-184.83 581.96,-170.83"/>
<polygon fill="black" stroke="black" points="582.76,-174.24 592.09,-169.23 581.67,-167.33 582.76,-174.24"/>
</g>
<!-- mst5 -->
<g id="node8" class="node">
<title>mst5</title>
<ellipse fill="none" stroke="black" cx="107.82" cy="-306" rx="29.63" ry="18"/>
<text text-anchor="middle" x="107.82" y="-301.8" font-family="Times,serif" font-size="14.00">mst5</text>
</g>
<!-- mst5&#45;&gt;merger1 -->
<g id="edge6" class="edge">
<title>mst5&#45;&gt;merger1</title>
<path fill="none" stroke="black" d="M123.98,-290.5C134.59,-280.97 148.69,-268.32 160.75,-257.5"/>
<polygon fill="black" stroke="black" points="163.21,-259.99 168.32,-250.7 158.54,-254.78 163.21,-259.99"/>
</g>
<!-- mst6 -->
<g id="node9" class="node">
<title>mst6</title>
<ellipse fill="none" stroke="black" cx="185.82" cy="-306" rx="29.63" ry="18"/>
<text text-anchor="middle" x="185.82" y="-301.8" font-family="Times,serif" font-size="14.00">mst6</text>
</g>
<!-- mst6&#45;&gt;merger1 -->
<g id="edge7" class="edge">
<title>mst6&#45;&gt;merger1</title>
<path fill="none" stroke="black" d="M185.82,-287.7C185.82,-279.98 185.82,-270.71 185.82,-262.11"/>
<polygon fill="black" stroke="black" points="189.32,-262.1 185.82,-252.1 182.32,-262.1 189.32,-262.1"/>
</g>
<!-- mst7 -->
<g id="node10" class="node">
<title>mst7</title>
<ellipse fill="none" stroke="black" cx="263.82" cy="-306" rx="29.63" ry="18"/>
<text text-anchor="middle" x="263.82" y="-301.8" font-family="Times,serif" font-size="14.00">mst7</text>
</g>
<!-- mst7&#45;&gt;merger1 -->
<g id="edge8" class="edge">
<title>mst7&#45;&gt;merger1</title>
<path fill="none" stroke="black" d="M247.65,-290.5C237.04,-280.97 222.94,-268.32 210.88,-257.5"/>
<polygon fill="black" stroke="black" points="213.09,-254.78 203.31,-250.7 208.42,-259.99 213.09,-254.78"/>
</g>
<!-- mst8 -->
<g id="node11" class="node">
<title>mst8</title>
<ellipse fill="none" stroke="black" cx="341.82" cy="-306" rx="29.63" ry="18"/>
<text text-anchor="middle" x="341.82" y="-301.8" font-family="Times,serif" font-size="14.00">mst8</text>
</g>
<!-- merger2 -->
<g id="node12" class="node">
<title>merger2</title>
<ellipse fill="none" stroke="black" cx="501.82" cy="-234" rx="43.42" ry="18"/>
<text text-anchor="middle" x="501.82" y="-229.8" font-family="Times,serif" font-size="14.00">merger2</text>
</g>
<!-- mst8&#45;&gt;merger2 -->
<g id="edge9" class="edge">
<title>mst8&#45;&gt;merger2</title>
<path fill="none" stroke="black" d="M365.42,-294.67C391.31,-283.35 433.22,-265.01 463.76,-251.65"/>
<polygon fill="black" stroke="black" points="465.48,-254.72 473.24,-247.5 462.68,-248.3 465.48,-254.72"/>
</g>
<!-- merger2&#45;&gt;merger4 -->
<g id="edge19" class="edge">
<title>merger2&#45;&gt;merger4</title>
<path fill="none" stroke="black" d="M527.19,-219.34C547.23,-208.54 575.4,-193.38 597.47,-181.5"/>
<polygon fill="black" stroke="black" points="599.36,-184.45 606.51,-176.63 596.04,-178.29 599.36,-184.45"/>
</g>
<!-- mst9 -->
<g id="node13" class="node">
<title>mst9</title>
<ellipse fill="none" stroke="black" cx="419.82" cy="-306" rx="29.63" ry="18"/>
<text text-anchor="middle" x="419.82" y="-301.8" font-family="Times,serif" font-size="14.00">mst9</text>
</g>
<!-- mst9&#45;&gt;merger2 -->
<g id="edge10" class="edge">
<title>mst9&#45;&gt;merger2</title>
<path fill="none" stroke="black" d="M436.41,-290.83C447.73,-281.17 462.94,-268.18 475.85,-257.17"/>
<polygon fill="black" stroke="black" points="478.2,-259.76 483.54,-250.61 473.66,-254.44 478.2,-259.76"/>
</g>
<!-- mst10 -->
<g id="node14" class="node">
<title>mst10</title>
<ellipse fill="none" stroke="black" cx="501.82" cy="-306" rx="34.79" ry="18"/>
<text text-anchor="middle" x="501.82" y="-301.8" font-family="Times,serif" font-size="14.00">mst10</text>
</g>
<!-- mst10&#45;&gt;merger2 -->
<g id="edge11" class="edge">
<title>mst10&#45;&gt;merger2</title>
<path fill="none" stroke="black" d="M501.82,-287.7C501.82,-279.98 501.82,-270.71 501.82,-262.11"/>
<polygon fill="black" stroke="black" points="505.32,-262.1 501.82,-252.1 498.32,-262.1 505.32,-262.1"/>
</g>
<!-- mst11 -->
<g id="node15" class="node">
<title>mst11</title>
<ellipse fill="none" stroke="black" cx="588.82" cy="-306" rx="34.79" ry="18"/>
<text text-anchor="middle" x="588.82" y="-301.8" font-family="Times,serif" font-size="14.00">mst11</text>
</g>
<!-- mst11&#45;&gt;merger2 -->
<g id="edge12" class="edge">
<title>mst11&#45;&gt;merger2</title>
<path fill="none" stroke="black" d="M570.79,-290.5C558.67,-280.75 542.48,-267.72 528.83,-256.74"/>
<polygon fill="black" stroke="black" points="530.71,-253.75 520.72,-250.21 526.32,-259.21 530.71,-253.75"/>
</g>
<!-- mst12 -->
<g id="node16" class="node">
<title>mst12</title>
<ellipse fill="none" stroke="black" cx="675.82" cy="-306" rx="34.79" ry="18"/>
<text text-anchor="middle" x="675.82" y="-301.8" font-family="Times,serif" font-size="14.00">mst12</text>
</g>
<!-- merger3 -->
<g id="node17" class="node">
<title>merger3</title>
<ellipse fill="none" stroke="black" cx="762.82" cy="-234" rx="43.42" ry="18"/>
<text text-anchor="middle" x="762.82" y="-229.8" font-family="Times,serif" font-size="14.00">merger3</text>
</g>
<!-- mst12&#45;&gt;merger3 -->
<g id="edge13" class="edge">
<title>mst12&#45;&gt;merger3</title>
<path fill="none" stroke="black" d="M693.84,-290.5C705.96,-280.75 722.15,-267.72 735.8,-256.74"/>
<polygon fill="black" stroke="black" points="738.31,-259.21 743.91,-250.21 733.92,-253.75 738.31,-259.21"/>
</g>
<!-- merger3&#45;&gt;merger4 -->
<g id="edge20" class="edge">
<title>merger3&#45;&gt;merger4</title>
<path fill="none" stroke="black" d="M737.25,-219.34C717.05,-208.54 688.66,-193.38 666.43,-181.5"/>
<polygon fill="black" stroke="black" points="667.79,-178.25 657.32,-176.63 664.49,-184.43 667.79,-178.25"/>
</g>
<!-- mst13 -->
<g id="node18" class="node">
<title>mst13</title>
<ellipse fill="none" stroke="black" cx="762.82" cy="-306" rx="34.79" ry="18"/>
<text text-anchor="middle" x="762.82" y="-301.8" font-family="Times,serif" font-size="14.00">mst13</text>
</g>
<!-- mst13&#45;&gt;merger3 -->
<g id="edge14" class="edge">
<title>mst13&#45;&gt;merger3</title>
<path fill="none" stroke="black" d="M762.82,-287.7C762.82,-279.98 762.82,-270.71 762.82,-262.11"/>
<polygon fill="black" stroke="black" points="766.32,-262.1 762.82,-252.1 759.32,-262.1 766.32,-262.1"/>
</g>
<!-- mst14 -->
<g id="node19" class="node">
<title>mst14</title>
<ellipse fill="none" stroke="black" cx="849.82" cy="-306" rx="34.79" ry="18"/>
<text text-anchor="middle" x="849.82" y="-301.8" font-family="Times,serif" font-size="14.00">mst14</text>
</g>
<!-- mst14&#45;&gt;merger3 -->
<g id="edge15" class="edge">
<title>mst14&#45;&gt;merger3</title>
<path fill="none" stroke="black" d="M831.79,-290.5C819.67,-280.75 803.48,-267.72 789.83,-256.74"/>
<polygon fill="black" stroke="black" points="791.71,-253.75 781.72,-250.21 787.32,-259.21 791.71,-253.75"/>
</g>
<!-- mst15 -->
<g id="node20" class="node">
<title>mst15</title>
<ellipse fill="none" stroke="black" cx="936.82" cy="-306" rx="34.79" ry="18"/>
<text text-anchor="middle" x="936.82" y="-301.8" font-family="Times,serif" font-size="14.00">mst15</text>
</g>
<!-- mst15&#45;&gt;merger3 -->
<g id="edge16" class="edge">
<title>mst15&#45;&gt;merger3</title>
<path fill="none" stroke="black" d="M910.01,-294.22C881.2,-282.63 835.13,-264.09 802.2,-250.85"/>
<polygon fill="black" stroke="black" points="803.45,-247.57 792.87,-247.09 800.84,-254.07 803.45,-247.57"/>
</g>
<!-- splitter0 -->
<g id="node22" class="node">
<title>splitter0</title>
<ellipse fill="none" stroke="black" cx="631.82" cy="-90" rx="42.87" ry="18"/>
<text text-anchor="middle" x="631.82" y="-85.8" font-family="Times,serif" font-size="14.00">splitter0</text>
</g>
<!-- merger4&#45;&gt;splitter0 -->
<g id="edge21" class="edge">
<title>merger4&#45;&gt;splitter0</title>
<path fill="none" stroke="black" d="M631.82,-143.7C631.82,-135.98 631.82,-126.71 631.82,-118.11"/>
<polygon fill="black" stroke="black" points="635.32,-118.1 631.82,-108.1 628.32,-118.1 635.32,-118.1"/>
</g>
<!-- slv0 -->
<g id="node23" class="node">
<title>slv0</title>
<ellipse fill="none" stroke="black" cx="523.82" cy="-18" rx="27.27" ry="18"/>
<text text-anchor="middle" x="523.82" y="-13.8" font-family="Times,serif" font-size="14.00">slv0</text>
</g>
<!-- splitter0&#45;&gt;slv0 -->
<g id="edge22" class="edge">
<title>splitter0&#45;&gt;slv0</title>
<path fill="none" stroke="black" d="M609.44,-74.5C592.6,-63.58 569.43,-48.57 551.44,-36.91"/>
<polygon fill="black" stroke="black" points="552.86,-33.66 542.57,-31.15 549.05,-39.53 552.86,-33.66"/>
</g>
<!-- slv1 -->
<g id="node24" class="node">
<title>slv1</title>
<ellipse fill="none" stroke="black" cx="595.82" cy="-18" rx="27.27" ry="18"/>
<text text-anchor="middle" x="595.82" y="-13.8" font-family="Times,serif" font-size="14.00">slv1</text>
</g>
<!-- splitter0&#45;&gt;slv1 -->
<g id="edge23" class="edge">
<title>splitter0&#45;&gt;slv1</title>
<path fill="none" stroke="black" d="M623.1,-72.05C618.84,-63.77 613.62,-53.62 608.89,-44.42"/>
<polygon fill="black" stroke="black" points="611.89,-42.6 604.2,-35.31 605.66,-45.8 611.89,-42.6"/>
</g>
<!-- slv2 -->
<g id="node25" class="node">
<title>slv2</title>
<ellipse fill="none" stroke="black" cx="667.82" cy="-18" rx="27.27" ry="18"/>
<text text-anchor="middle" x="667.82" y="-13.8" font-family="Times,serif" font-size="14.00">slv2</text>
</g>
<!-- splitter0&#45;&gt;slv2 -->
<g id="edge24" class="edge">
<title>splitter0&#45;&gt;slv2</title>
<path fill="none" stroke="black" d="M640.53,-72.05C644.79,-63.77 650.01,-53.62 654.74,-44.42"/>
<polygon fill="black" stroke="black" points="657.97,-45.8 659.43,-35.31 651.74,-42.6 657.97,-45.8"/>
</g>
<!-- slv3 -->
<g id="node26" class="node">
<title>slv3</title>
<ellipse fill="none" stroke="black" cx="739.82" cy="-18" rx="27.27" ry="18"/>
<text text-anchor="middle" x="739.82" y="-13.8" font-family="Times,serif" font-size="14.00">slv3</text>
</g>
<!-- splitter0&#45;&gt;slv3 -->
<g id="edge25" class="edge">
<title>splitter0&#45;&gt;slv3</title>
<path fill="none" stroke="black" d="M654.19,-74.5C671.03,-63.58 694.2,-48.57 712.19,-36.91"/>
<polygon fill="black" stroke="black" points="714.58,-39.53 721.07,-31.15 710.77,-33.66 714.58,-39.53"/>
</g>
</g>
</svg>
