<?xml version="1.0" encoding="UTF-8" standalone="no"?>
<!DOCTYPE svg PUBLIC "-//W3C//DTD SVG 1.1//EN"
 "http://www.w3.org/Graphics/SVG/1.1/DTD/svg11.dtd">
<!-- Generated by graphviz version 2.46.1 (20210213.1702)
 -->
<!-- Title: test0 Pages: 1 -->
<svg width="1202pt" height="332pt"
 viewBox="0.00 0.00 1202.09 332.00" xmlns="http://www.w3.org/2000/svg" xmlns:xlink="http://www.w3.org/1999/xlink">
<g id="graph0" class="graph" transform="scale(1 1) rotate(0) translate(4 328)">
<title>test0</title>
<polygon fill="white" stroke="transparent" points="-4,4 -4,-328 1198.09,-328 1198.09,4 -4,4"/>
<!-- mst0 -->
<g id="node1" class="node">
<title>mst0</title>
<ellipse fill="none" stroke="black" cx="442.13" cy="-306" rx="29.63" ry="18"/>
<text text-anchor="middle" x="442.13" y="-301.8" font-family="Times,serif" font-size="14.00">mst0</text>
</g>
<!-- split0 -->
<g id="node2" class="node">
<title>split0</title>
<ellipse fill="none" stroke="black" cx="442.13" cy="-234" rx="32.5" ry="18"/>
<text text-anchor="middle" x="442.13" y="-229.8" font-family="Times,serif" font-size="14.00">split0</text>
</g>
<!-- mst0&#45;&gt;split0 -->
<g id="edge1" class="edge">
<title>mst0&#45;&gt;split0</title>
<path fill="none" stroke="black" d="M442.13,-287.7C442.13,-279.98 442.13,-270.71 442.13,-262.11"/>
<polygon fill="black" stroke="black" points="445.63,-262.1 442.13,-252.1 438.63,-262.1 445.63,-262.1"/>
</g>
<!-- merge0 -->
<g id="node3" class="node">
<title>merge0</title>
<ellipse fill="none" stroke="black" cx="420.13" cy="-162" rx="39.99" ry="18"/>
<text text-anchor="middle" x="420.13" y="-157.8" font-family="Times,serif" font-size="14.00">merge0</text>
</g>
<!-- split0&#45;&gt;merge0 -->
<g id="edge2" class="edge">
<title>split0&#45;&gt;merge0</title>
<path fill="none" stroke="black" d="M436.81,-216.05C434.36,-208.26 431.39,-198.82 428.64,-190.08"/>
<polygon fill="black" stroke="black" points="431.9,-188.77 425.56,-180.28 425.22,-190.86 431.9,-188.77"/>
</g>
<!-- merge1 -->
<g id="node4" class="node">
<title>merge1</title>
<ellipse fill="none" stroke="black" cx="518.13" cy="-162" rx="39.99" ry="18"/>
<text text-anchor="middle" x="518.13" y="-157.8" font-family="Times,serif" font-size="14.00">merge1</text>
</g>
<!-- split0&#45;&gt;merge1 -->
<g id="edge3" class="edge">
<title>split0&#45;&gt;merge1</title>
<path fill="none" stroke="black" d="M458.25,-218.15C468.52,-208.7 482.02,-196.26 493.6,-185.6"/>
<polygon fill="black" stroke="black" points="496.26,-187.9 501.25,-178.55 491.52,-182.75 496.26,-187.9"/>
</g>
<!-- merge2 -->
<g id="node5" class="node">
<title>merge2</title>
<ellipse fill="none" stroke="black" cx="616.13" cy="-162" rx="39.99" ry="18"/>
<text text-anchor="middle" x="616.13" y="-157.8" font-family="Times,serif" font-size="14.00">merge2</text>
</g>
<!-- split0&#45;&gt;merge2 -->
<g id="edge4" class="edge">
<title>split0&#45;&gt;merge2</title>
<path fill="none" stroke="black" d="M467.26,-222.52C472.5,-220.35 477.99,-218.09 483.13,-216 514.92,-203.08 551.1,-188.68 577.69,-178.16"/>
<polygon fill="black" stroke="black" points="579.02,-181.4 587.03,-174.46 576.44,-174.89 579.02,-181.4"/>
</g>
<!-- merge3 -->
<g id="node6" class="node">
<title>merge3</title>
<ellipse fill="none" stroke="black" cx="714.13" cy="-162" rx="39.99" ry="18"/>
<text text-anchor="middle" x="714.13" y="-157.8" font-family="Times,serif" font-size="14.00">merge3</text>
</g>
<!-- split0&#45;&gt;merge3 -->
<g id="edge5" class="edge">
<title>split0&#45;&gt;merge3</title>
<path fill="none" stroke="black" d="M466.56,-221.95C471.95,-219.77 477.68,-217.65 483.13,-216 562.05,-192.09 585.55,-201.57 665.13,-180 668.26,-179.15 671.48,-178.21 674.7,-177.21"/>
<polygon fill="black" stroke="black" points="675.85,-180.51 684.28,-174.09 673.69,-173.86 675.85,-180.51"/>
</g>
<!-- split4 -->
<g id="node13" class="node">
<title>split4</title>
<ellipse fill="none" stroke="black" cx="171.13" cy="-90" rx="32.5" ry="18"/>
<text text-anchor="middle" x="171.13" y="-85.8" font-family="Times,serif" font-size="14.00">split4</text>
</g>
<!-- merge0&#45;&gt;split4 -->
<g id="edge21" class="edge">
<title>merge0&#45;&gt;split4</title>
<path fill="none" stroke="black" d="M387.07,-151.7C341.12,-138.79 258.15,-115.46 209.53,-101.79"/>
<polygon fill="black" stroke="black" points="210.27,-98.37 199.7,-99.03 208.38,-105.11 210.27,-98.37"/>
</g>
<!-- split5 -->
<g id="node14" class="node">
<title>split5</title>
<ellipse fill="none" stroke="black" cx="459.13" cy="-90" rx="32.5" ry="18"/>
<text text-anchor="middle" x="459.13" y="-85.8" font-family="Times,serif" font-size="14.00">split5</text>
</g>
<!-- merge1&#45;&gt;split5 -->
<g id="edge22" class="edge">
<title>merge1&#45;&gt;split5</title>
<path fill="none" stroke="black" d="M504.45,-144.76C496.9,-135.8 487.38,-124.51 479.02,-114.59"/>
<polygon fill="black" stroke="black" points="481.46,-112.06 472.34,-106.67 476.11,-116.57 481.46,-112.06"/>
</g>
<!-- split6 -->
<g id="node15" class="node">
<title>split6</title>
<ellipse fill="none" stroke="black" cx="675.13" cy="-90" rx="32.5" ry="18"/>
<text text-anchor="middle" x="675.13" y="-85.8" font-family="Times,serif" font-size="14.00">split6</text>
</g>
<!-- merge2&#45;&gt;split6 -->
<g id="edge23" class="edge">
<title>merge2&#45;&gt;split6</title>
<path fill="none" stroke="black" d="M629.82,-144.76C637.37,-135.8 646.89,-124.51 655.25,-114.59"/>
<polygon fill="black" stroke="black" points="658.16,-116.57 661.93,-106.67 652.81,-112.06 658.16,-116.57"/>
</g>
<!-- split7 -->
<g id="node16" class="node">
<title>split7</title>
<ellipse fill="none" stroke="black" cx="998.13" cy="-90" rx="32.5" ry="18"/>
<text text-anchor="middle" x="998.13" y="-85.8" font-family="Times,serif" font-size="14.00">split7</text>
</g>
<!-- merge3&#45;&gt;split7 -->
<g id="edge24" class="edge">
<title>merge3&#45;&gt;split7</title>
<path fill="none" stroke="black" d="M748.39,-152.56C801.44,-139.48 903.18,-114.4 959.03,-100.64"/>
<polygon fill="black" stroke="black" points="960.04,-104 968.91,-98.2 958.36,-97.2 960.04,-104"/>
</g>
<!-- mst1 -->
<g id="node7" class="node">
<title>mst1</title>
<ellipse fill="none" stroke="black" cx="525.13" cy="-306" rx="29.63" ry="18"/>
<text text-anchor="middle" x="525.13" y="-301.8" font-family="Times,serif" font-size="14.00">mst1</text>
</g>
<!-- split1 -->
<g id="node8" class="node">
<title>split1</title>
<ellipse fill="none" stroke="black" cx="525.13" cy="-234" rx="32.5" ry="18"/>
<text text-anchor="middle" x="525.13" y="-229.8" font-family="Times,serif" font-size="14.00">split1</text>
</g>
<!-- mst1&#45;&gt;split1 -->
<g id="edge6" class="edge">
<title>mst1&#45;&gt;split1</title>
<path fill="none" stroke="black" d="M525.13,-287.7C525.13,-279.98 525.13,-270.71 525.13,-262.11"/>
<polygon fill="black" stroke="black" points="528.63,-262.1 525.13,-252.1 521.63,-262.1 528.63,-262.1"/>
</g>
<!-- split1&#45;&gt;merge0 -->
<g id="edge7" class="edge">
<title>split1&#45;&gt;merge0</title>
<path fill="none" stroke="black" d="M504.89,-219.5C489.46,-209.22 467.97,-194.89 450.48,-183.23"/>
<polygon fill="black" stroke="black" points="452.02,-180.05 441.76,-177.42 448.14,-185.88 452.02,-180.05"/>
</g>
<!-- split1&#45;&gt;merge1 -->
<g id="edge8" class="edge">
<title>split1&#45;&gt;merge1</title>
<path fill="none" stroke="black" d="M523.4,-215.7C522.63,-207.98 521.7,-198.71 520.84,-190.11"/>
<polygon fill="black" stroke="black" points="524.32,-189.71 519.84,-180.1 517.36,-190.4 524.32,-189.71"/>
</g>
<!-- split1&#45;&gt;merge2 -->
<g id="edge9" class="edge">
<title>split1&#45;&gt;merge2</title>
<path fill="none" stroke="black" d="M543.55,-218.83C556.49,-208.88 574.02,-195.4 588.61,-184.17"/>
<polygon fill="black" stroke="black" points="591.01,-186.74 596.8,-177.87 586.74,-181.19 591.01,-186.74"/>
</g>
<!-- split1&#45;&gt;merge3 -->
<g id="edge10" class="edge">
<title>split1&#45;&gt;merge3</title>
<path fill="none" stroke="black" d="M550.21,-222.37C555.45,-220.22 560.96,-218 566.13,-216 586.09,-208.29 637.1,-190.15 673.65,-177.24"/>
<polygon fill="black" stroke="black" points="675.27,-180.38 683.54,-173.76 672.94,-173.78 675.27,-180.38"/>
</g>
<!-- mst2 -->
<g id="node9" class="node">
<title>mst2</title>
<ellipse fill="none" stroke="black" cx="608.13" cy="-306" rx="29.63" ry="18"/>
<text text-anchor="middle" x="608.13" y="-301.8" font-family="Times,serif" font-size="14.00">mst2</text>
</g>
<!-- split2 -->
<g id="node10" class="node">
<title>split2</title>
<ellipse fill="none" stroke="black" cx="608.13" cy="-234" rx="32.5" ry="18"/>
<text text-anchor="middle" x="608.13" y="-229.8" font-family="Times,serif" font-size="14.00">split2</text>
</g>
<!-- mst2&#45;&gt;split2 -->
<g id="edge11" class="edge">
<title>mst2&#45;&gt;split2</title>
<path fill="none" stroke="black" d="M608.13,-287.7C608.13,-279.98 608.13,-270.71 608.13,-262.11"/>
<polygon fill="black" stroke="black" points="611.63,-262.1 608.13,-252.1 604.63,-262.1 611.63,-262.1"/>
</g>
<!-- split2&#45;&gt;merge0 -->
<g id="edge12" class="edge">
<title>split2&#45;&gt;merge0</title>
<path fill="none" stroke="black" d="M583.06,-222.38C577.81,-220.23 572.31,-218 567.13,-216 531.34,-202.13 490.2,-187.4 460.56,-177"/>
<polygon fill="black" stroke="black" points="461.57,-173.65 450.98,-173.65 459.26,-180.25 461.57,-173.65"/>
</g>
<!-- split2&#45;&gt;merge1 -->
<g id="edge13" class="edge">
<title>split2&#45;&gt;merge1</title>
<path fill="none" stroke="black" d="M589.92,-218.83C577.12,-208.88 559.79,-195.4 545.36,-184.17"/>
<polygon fill="black" stroke="black" points="547.29,-181.25 537.25,-177.87 543,-186.77 547.29,-181.25"/>
</g>
<!-- split2&#45;&gt;merge2 -->
<g id="edge14" class="edge">
<title>split2&#45;&gt;merge2</title>
<path fill="none" stroke="black" d="M610.11,-215.7C610.99,-207.98 612.05,-198.71 613.03,-190.11"/>
<polygon fill="black" stroke="black" points="616.52,-190.44 614.18,-180.1 609.57,-189.64 616.52,-190.44"/>
</g>
<!-- split2&#45;&gt;merge3 -->
<g id="edge15" class="edge">
<title>split2&#45;&gt;merge3</title>
<path fill="none" stroke="black" d="M628.57,-219.5C644.14,-209.22 665.84,-194.89 683.49,-183.23"/>
<polygon fill="black" stroke="black" points="685.88,-185.85 692.3,-177.42 682.02,-180.01 685.88,-185.85"/>
</g>
<!-- mst3 -->
<g id="node11" class="node">
<title>mst3</title>
<ellipse fill="none" stroke="black" cx="691.13" cy="-306" rx="29.63" ry="18"/>
<text text-anchor="middle" x="691.13" y="-301.8" font-family="Times,serif" font-size="14.00">mst3</text>
</g>
<!-- split3 -->
<g id="node12" class="node">
<title>split3</title>
<ellipse fill="none" stroke="black" cx="691.13" cy="-234" rx="32.5" ry="18"/>
<text text-anchor="middle" x="691.13" y="-229.8" font-family="Times,serif" font-size="14.00">split3</text>
</g>
<!-- mst3&#45;&gt;split3 -->
<g id="edge16" class="edge">
<title>mst3&#45;&gt;split3</title>
<path fill="none" stroke="black" d="M691.13,-287.7C691.13,-279.98 691.13,-270.71 691.13,-262.11"/>
<polygon fill="black" stroke="black" points="694.63,-262.1 691.13,-252.1 687.63,-262.1 694.63,-262.1"/>
</g>
<!-- split3&#45;&gt;merge0 -->
<g id="edge17" class="edge">
<title>split3&#45;&gt;merge0</title>
<path fill="none" stroke="black" d="M666.7,-221.95C661.32,-219.78 655.59,-217.66 650.13,-216 571.65,-192.18 548.29,-201.49 469.13,-180 466,-179.15 462.79,-178.2 459.57,-177.2"/>
<polygon fill="black" stroke="black" points="460.58,-173.85 449.99,-174.09 458.42,-180.51 460.58,-173.85"/>
</g>
<!-- split3&#45;&gt;merge1 -->
<g id="edge18" class="edge">
<title>split3&#45;&gt;merge1</title>
<path fill="none" stroke="black" d="M666,-222.53C660.76,-220.36 655.27,-218.1 650.13,-216 618.71,-203.18 582.98,-188.85 556.62,-178.32"/>
<polygon fill="black" stroke="black" points="557.6,-174.94 547.01,-174.49 555,-181.44 557.6,-174.94"/>
</g>
<!-- split3&#45;&gt;merge2 -->
<g id="edge19" class="edge">
<title>split3&#45;&gt;merge2</title>
<path fill="none" stroke="black" d="M675.23,-218.15C665.1,-208.7 651.77,-196.26 640.34,-185.6"/>
<polygon fill="black" stroke="black" points="642.49,-182.82 632.8,-178.55 637.72,-187.93 642.49,-182.82"/>
</g>
<!-- split3&#45;&gt;merge3 -->
<g id="edge20" class="edge">
<title>split3&#45;&gt;merge3</title>
<path fill="none" stroke="black" d="M696.7,-216.05C699.29,-208.18 702.43,-198.62 705.33,-189.79"/>
<polygon fill="black" stroke="black" points="708.66,-190.87 708.46,-180.28 702.01,-188.68 708.66,-190.87"/>
</g>
<!-- slv0 -->
<g id="node17" class="node">
<title>slv0</title>
<ellipse fill="none" stroke="black" cx="27.13" cy="-18" rx="27.27" ry="18"/>
<text text-anchor="middle" x="27.13" y="-13.8" font-family="Times,serif" font-size="14.00">slv0</text>
</g>
<!-- split4&#45;&gt;slv0 -->
<g id="edge25" class="edge">
<title>split4&#45;&gt;slv0</title>
<path fill="none" stroke="black" d="M147.35,-77.44C122.88,-65.54 84.65,-46.96 57.89,-33.95"/>
<polygon fill="black" stroke="black" points="59.12,-30.66 48.59,-29.43 56.06,-36.95 59.12,-30.66"/>
</g>
<!-- slv1 -->
<g id="node18" class="node">
<title>slv1</title>
<ellipse fill="none" stroke="black" cx="99.13" cy="-18" rx="27.27" ry="18"/>
<text text-anchor="middle" x="99.13" y="-13.8" font-family="Times,serif" font-size="14.00">slv1</text>
</g>
<!-- split4&#45;&gt;slv1 -->
<g id="edge26" class="edge">
<title>split4&#45;&gt;slv1</title>
<path fill="none" stroke="black" d="M155.51,-73.81C145.43,-64.01 132.17,-51.12 121.04,-40.3"/>
<polygon fill="black" stroke="black" points="123.35,-37.67 113.74,-33.21 118.47,-42.69 123.35,-37.67"/>
</g>
<!-- slv2 -->
<g id="node19" class="node">
<title>slv2</title>
<ellipse fill="none" stroke="black" cx="171.13" cy="-18" rx="27.27" ry="18"/>
<text text-anchor="middle" x="171.13" y="-13.8" font-family="Times,serif" font-size="14.00">slv2</text>
</g>
<!-- split4&#45;&gt;slv2 -->
<g id="edge27" class="edge">
<title>split4&#45;&gt;slv2</title>
<path fill="none" stroke="black" d="M171.13,-71.7C171.13,-63.98 171.13,-54.71 171.13,-46.11"/>
<polygon fill="black" stroke="black" points="174.63,-46.1 171.13,-36.1 167.63,-46.1 174.63,-46.1"/>
</g>
<!-- slv3 -->
<g id="node20" class="node">
<title>slv3</title>
<ellipse fill="none" stroke="black" cx="243.13" cy="-18" rx="27.27" ry="18"/>
<text text-anchor="middle" x="243.13" y="-13.8" font-family="Times,serif" font-size="14.00">slv3</text>
</g>
<!-- split4&#45;&gt;slv3 -->
<g id="edge28" class="edge">
<title>split4&#45;&gt;slv3</title>
<path fill="none" stroke="black" d="M186.76,-73.81C196.84,-64.01 210.1,-51.12 221.22,-40.3"/>
<polygon fill="black" stroke="black" points="223.79,-42.69 228.52,-33.21 218.91,-37.67 223.79,-42.69"/>
</g>
<!-- slv4 -->
<g id="node21" class="node">
<title>slv4</title>
<ellipse fill="none" stroke="black" cx="315.13" cy="-18" rx="27.27" ry="18"/>
<text text-anchor="middle" x="315.13" y="-13.8" font-family="Times,serif" font-size="14.00">slv4</text>
</g>
<!-- split5&#45;&gt;slv4 -->
<g id="edge29" class="edge">
<title>split5&#45;&gt;slv4</title>
<path fill="none" stroke="black" d="M435.35,-77.44C410.88,-65.54 372.65,-46.96 345.89,-33.95"/>
<polygon fill="black" stroke="black" points="347.12,-30.66 336.59,-29.43 344.06,-36.95 347.12,-30.66"/>
</g>
<!-- slv5 -->
<g id="node22" class="node">
<title>slv5</title>
<ellipse fill="none" stroke="black" cx="387.13" cy="-18" rx="27.27" ry="18"/>
<text text-anchor="middle" x="387.13" y="-13.8" font-family="Times,serif" font-size="14.00">slv5</text>
</g>
<!-- split5&#45;&gt;slv5 -->
<g id="edge30" class="edge">
<title>split5&#45;&gt;slv5</title>
<path fill="none" stroke="black" d="M443.51,-73.81C433.43,-64.01 420.17,-51.12 409.04,-40.3"/>
<polygon fill="black" stroke="black" points="411.35,-37.67 401.74,-33.21 406.47,-42.69 411.35,-37.67"/>
</g>
<!-- slv6 -->
<g id="node23" class="node">
<title>slv6</title>
<ellipse fill="none" stroke="black" cx="459.13" cy="-18" rx="27.27" ry="18"/>
<text text-anchor="middle" x="459.13" y="-13.8" font-family="Times,serif" font-size="14.00">slv6</text>
</g>
<!-- split5&#45;&gt;slv6 -->
<g id="edge31" class="edge">
<title>split5&#45;&gt;slv6</title>
<path fill="none" stroke="black" d="M459.13,-71.7C459.13,-63.98 459.13,-54.71 459.13,-46.11"/>
<polygon fill="black" stroke="black" points="462.63,-46.1 459.13,-36.1 455.63,-46.1 462.63,-46.1"/>
</g>
<!-- slv7 -->
<g id="node24" class="node">
<title>slv7</title>
<ellipse fill="none" stroke="black" cx="531.13" cy="-18" rx="27.27" ry="18"/>
<text text-anchor="middle" x="531.13" y="-13.8" font-family="Times,serif" font-size="14.00">slv7</text>
</g>
<!-- split5&#45;&gt;slv7 -->
<g id="edge32" class="edge">
<title>split5&#45;&gt;slv7</title>
<path fill="none" stroke="black" d="M474.76,-73.81C484.84,-64.01 498.1,-51.12 509.22,-40.3"/>
<polygon fill="black" stroke="black" points="511.79,-42.69 516.52,-33.21 506.91,-37.67 511.79,-42.69"/>
</g>
<!-- slv8 -->
<g id="node25" class="node">
<title>slv8</title>
<ellipse fill="none" stroke="black" cx="603.13" cy="-18" rx="27.27" ry="18"/>
<text text-anchor="middle" x="603.13" y="-13.8" font-family="Times,serif" font-size="14.00">slv8</text>
</g>
<!-- split6&#45;&gt;slv8 -->
<g id="edge33" class="edge">
<title>split6&#45;&gt;slv8</title>
<path fill="none" stroke="black" d="M659.51,-73.81C649.43,-64.01 636.17,-51.12 625.04,-40.3"/>
<polygon fill="black" stroke="black" points="627.35,-37.67 617.74,-33.21 622.47,-42.69 627.35,-37.67"/>
</g>
<!-- slv9 -->
<g id="node26" class="node">
<title>slv9</title>
<ellipse fill="none" stroke="black" cx="675.13" cy="-18" rx="27.27" ry="18"/>
<text text-anchor="middle" x="675.13" y="-13.8" font-family="Times,serif" font-size="14.00">slv9</text>
</g>
<!-- split6&#45;&gt;slv9 -->
<g id="edge34" class="edge">
<title>split6&#45;&gt;slv9</title>
<path fill="none" stroke="black" d="M675.13,-71.7C675.13,-63.98 675.13,-54.71 675.13,-46.11"/>
<polygon fill="black" stroke="black" points="678.63,-46.1 675.13,-36.1 671.63,-46.1 678.63,-46.1"/>
</g>
<!-- slv10 -->
<g id="node27" class="node">
<title>slv10</title>
<ellipse fill="none" stroke="black" cx="752.13" cy="-18" rx="31.92" ry="18"/>
<text text-anchor="middle" x="752.13" y="-13.8" font-family="Times,serif" font-size="14.00">slv10</text>
</g>
<!-- split6&#45;&gt;slv10 -->
<g id="edge35" class="edge">
<title>split6&#45;&gt;slv10</title>
<path fill="none" stroke="black" d="M691.46,-74.15C702.25,-64.34 716.57,-51.33 728.59,-40.41"/>
<polygon fill="black" stroke="black" points="731.05,-42.9 736.09,-33.58 726.34,-37.72 731.05,-42.9"/>
</g>
<!-- slv11 -->
<g id="node28" class="node">
<title>slv11</title>
<ellipse fill="none" stroke="black" cx="834.13" cy="-18" rx="31.92" ry="18"/>
<text text-anchor="middle" x="834.13" y="-13.8" font-family="Times,serif" font-size="14.00">slv11</text>
</g>
<!-- split6&#45;&gt;slv11 -->
<g id="edge36" class="edge">
<title>split6&#45;&gt;slv11</title>
<path fill="none" stroke="black" d="M699.98,-78.06C727.01,-66.16 770.38,-47.07 800.46,-33.82"/>
<polygon fill="black" stroke="black" points="801.98,-36.98 809.72,-29.75 799.16,-30.57 801.98,-36.98"/>
</g>
<!-- slv12 -->
<g id="node29" class="node">
<title>slv12</title>
<ellipse fill="none" stroke="black" cx="916.13" cy="-18" rx="31.92" ry="18"/>
<text text-anchor="middle" x="916.13" y="-13.8" font-family="Times,serif" font-size="14.00">slv12</text>
</g>
<!-- split7&#45;&gt;slv12 -->
<g id="edge37" class="edge">
<title>split7&#45;&gt;slv12</title>
<path fill="none" stroke="black" d="M981.14,-74.5C969.49,-64.55 953.84,-51.19 940.81,-40.07"/>
<polygon fill="black" stroke="black" points="942.98,-37.32 933.1,-33.49 938.43,-42.64 942.98,-37.32"/>
</g>
<!-- slv13 -->
<g id="node30" class="node">
<title>slv13</title>
<ellipse fill="none" stroke="black" cx="998.13" cy="-18" rx="31.92" ry="18"/>
<text text-anchor="middle" x="998.13" y="-13.8" font-family="Times,serif" font-size="14.00">slv13</text>
</g>
<!-- split7&#45;&gt;slv13 -->
<g id="edge38" class="edge">
<title>split7&#45;&gt;slv13</title>
<path fill="none" stroke="black" d="M998.13,-71.7C998.13,-63.98 998.13,-54.71 998.13,-46.11"/>
<polygon fill="black" stroke="black" points="1001.63,-46.1 998.13,-36.1 994.63,-46.1 1001.63,-46.1"/>
</g>
<!-- slv14 -->
<g id="node31" class="node">
<title>slv14</title>
<ellipse fill="none" stroke="black" cx="1080.13" cy="-18" rx="31.92" ry="18"/>
<text text-anchor="middle" x="1080.13" y="-13.8" font-family="Times,serif" font-size="14.00">slv14</text>
</g>
<!-- split7&#45;&gt;slv14 -->
<g id="edge39" class="edge">
<title>split7&#45;&gt;slv14</title>
<path fill="none" stroke="black" d="M1015.12,-74.5C1026.78,-64.55 1042.43,-51.19 1055.45,-40.07"/>
<polygon fill="black" stroke="black" points="1057.83,-42.64 1063.16,-33.49 1053.29,-37.32 1057.83,-42.64"/>
</g>
<!-- slv15 -->
<g id="node32" class="node">
<title>slv15</title>
<ellipse fill="none" stroke="black" cx="1162.13" cy="-18" rx="31.92" ry="18"/>
<text text-anchor="middle" x="1162.13" y="-13.8" font-family="Times,serif" font-size="14.00">slv15</text>
</g>
<!-- split7&#45;&gt;slv15 -->
<g id="edge40" class="edge">
<title>split7&#45;&gt;slv15</title>
<path fill="none" stroke="black" d="M1023.04,-78.37C1051.14,-66.38 1096.99,-46.81 1128.31,-33.44"/>
<polygon fill="black" stroke="black" points="1129.7,-36.65 1137.53,-29.5 1126.96,-30.21 1129.7,-36.65"/>
</g>
</g>
</svg>
